<?xml version="1.0" encoding="UTF-8"?>
<!DOCTYPE svg PUBLIC "-//W3C//DTD SVG 1.1//EN" "http://www.w3.org/Graphics/SVG/1.1/DTD/svg11.dtd">
<svg xmlns="http://www.w3.org/2000/svg" version="1.1" width="707px" height="353px" style="shape-rendering:geometricPrecision; text-rendering:geometricPrecision; image-rendering:optimizeQuality; fill-rule:evenodd; clip-rule:evenodd" xmlns:xlink="http://www.w3.org/1999/xlink">
<g><path style="opacity:0.149" fill="#021b3d" d="M 168.5,98.5 C 162.31,98.1771 156.31,98.5104 150.5,99.5C 148.167,99.5 145.833,99.5 143.5,99.5C 148.423,98.046 153.589,97.3793 159,97.5C 162.352,97.5018 165.518,97.8351 168.5,98.5 Z"/></g>
<g><path style="opacity:0.624" fill="#11396b" d="M 150.5,99.5 C 156.31,98.5104 162.31,98.1771 168.5,98.5C 173.888,98.762 178.888,100.095 183.5,102.5C 172.671,100.136 161.671,99.136 150.5,99.5 Z"/></g>
<g><path style="opacity:0.529" fill="#0b3157" d="M 143.5,99.5 C 138.149,101.008 133.149,103.341 128.5,106.5C 126.167,107.167 123.833,107.833 121.5,108.5C 127.967,103.562 135.301,100.562 143.5,99.5 Z"/></g>
<g><path style="opacity:0.216" fill="#051b45" d="M 183.5,102.5 C 185.967,102.755 187.967,103.755 189.5,105.5C 187.033,105.245 185.033,104.245 183.5,102.5 Z"/></g>
<g><path style="opacity:1" fill="#2184db" d="M 194.5,110.5 C 194.414,111.496 194.748,112.329 195.5,113C 194.167,114.667 192.833,116.333 191.5,118C 192.448,118.483 193.448,118.649 194.5,118.5C 194.88,121.792 193.547,124.125 190.5,125.5C 188.002,122.667 185.002,120.501 181.5,119C 179.963,117.89 179.297,116.39 179.5,114.5C 176.057,114.204 172.557,113.871 169,113.5C 162.986,115.373 156.819,115.873 150.5,115C 151.949,113.883 153.616,113.216 155.5,113C 152.318,111.261 148.984,111.095 145.5,112.5C 143.995,113.842 143.328,115.508 143.5,117.5C 142.022,117.762 140.689,117.429 139.5,116.5C 138.855,114.568 137.521,113.401 135.5,113C 137.001,111.748 138.668,110.748 140.5,110C 138.709,109.585 137.376,108.585 136.5,107C 140.63,104.428 144.964,102.595 149.5,101.5C 159.027,100.038 168.36,100.871 177.5,104C 174.108,105.783 170.608,105.949 167,104.5C 166.846,106.705 167.512,108.705 169,110.5C 171.74,109.718 174.574,109.218 177.5,109C 178.191,107.933 178.691,106.766 179,105.5C 184.262,106.115 189.429,107.782 194.5,110.5 Z"/></g>
<g><path style="opacity:1" fill="#287fcb" d="M 143.5,99.5 C 145.833,99.5 148.167,99.5 150.5,99.5C 161.671,99.136 172.671,100.136 183.5,102.5C 185.033,104.245 187.033,105.245 189.5,105.5C 190.897,107.379 192.563,109.046 194.5,110.5C 189.429,107.782 184.262,106.115 179,105.5C 178.691,106.766 178.191,107.933 177.5,109C 174.574,109.218 171.74,109.718 169,110.5C 167.512,108.705 166.846,106.705 167,104.5C 170.608,105.949 174.108,105.783 177.5,104C 168.36,100.871 159.027,100.038 149.5,101.5C 146.813,101.336 144.146,101.503 141.5,102C 137.427,104.191 133.094,105.691 128.5,106.5C 133.149,103.341 138.149,101.008 143.5,99.5 Z"/></g>
<g><path style="opacity:0.063" fill="#0b285c" d="M 189.5,105.5 C 195.232,107.456 200.065,110.789 204,115.5C 204.773,117.352 204.273,118.686 202.5,119.5C 201.992,114.655 199.326,111.655 194.5,110.5C 192.563,109.046 190.897,107.379 189.5,105.5 Z"/></g>
<g><path style="opacity:0.788" fill="#2a5a1f" d="M 510.5,105.5 C 516.568,104.174 522.734,104.174 529,105.5C 529.37,146.671 528.87,187.671 527.5,228.5C 527.5,216.5 527.5,204.5 527.5,192.5C 527.5,163.5 527.5,134.5 527.5,105.5C 521.833,105.5 516.167,105.5 510.5,105.5 Z"/></g>
<g><path style="opacity:0.196" fill="#0d3259" d="M 121.5,108.5 C 116.312,113.033 111.145,117.699 106,122.5C 104.207,125.394 102.707,128.394 101.5,131.5C 100.833,131.5 100.5,131.833 100.5,132.5C 100.167,132.5 99.8333,132.5 99.5,132.5C 97.8333,135.167 96.1667,137.833 94.5,140.5C 99.2758,126.289 108.276,115.622 121.5,108.5 Z"/></g>
<g><path style="opacity:1" fill="#2682cd" d="M 128.5,106.5 C 127.105,109.312 124.771,110.646 121.5,110.5C 121.509,112.308 121.009,113.975 120,115.5C 116.604,118.232 113.937,121.565 112,125.5C 111.51,124.207 111.343,122.873 111.5,121.5C 110.5,121.5 109.5,121.5 108.5,121.5C 108.762,124.501 109.596,127.168 111,129.5C 109.488,130.257 108.154,131.257 107,132.5C 106.798,130.744 106.298,129.078 105.5,127.5C 104.676,129.421 103.343,130.754 101.5,131.5C 102.707,128.394 104.207,125.394 106,122.5C 111.145,117.699 116.312,113.033 121.5,108.5C 123.833,107.833 126.167,107.167 128.5,106.5 Z"/></g>
<g><path style="opacity:0.02" fill="#042250" d="M 202.5,119.5 C 200.085,123.422 197.085,126.922 193.5,130C 190.187,130.864 187.854,129.698 186.5,126.5C 188.311,127.822 190.311,128.322 192.5,128C 196.069,125.25 199.403,122.416 202.5,119.5 Z"/></g>
<g><path style="opacity:1" fill="#2383d7" d="M 149.5,101.5 C 144.964,102.595 140.63,104.428 136.5,107C 137.376,108.585 138.709,109.585 140.5,110C 138.668,110.748 137.001,111.748 135.5,113C 137.521,113.401 138.855,114.568 139.5,116.5C 140.689,117.429 142.022,117.762 143.5,117.5C 143.328,115.508 143.995,113.842 145.5,112.5C 148.984,111.095 152.318,111.261 155.5,113C 153.616,113.216 151.949,113.883 150.5,115C 156.819,115.873 162.986,115.373 169,113.5C 172.557,113.871 176.057,114.204 179.5,114.5C 179.297,116.39 179.963,117.89 181.5,119C 185.002,120.501 188.002,122.667 190.5,125.5C 193.547,124.125 194.88,121.792 194.5,118.5C 193.448,118.649 192.448,118.483 191.5,118C 192.833,116.333 194.167,114.667 195.5,113C 194.748,112.329 194.414,111.496 194.5,110.5C 199.326,111.655 201.992,114.655 202.5,119.5C 199.403,122.416 196.069,125.25 192.5,128C 190.311,128.322 188.311,127.822 186.5,126.5C 185.281,122.62 182.615,120.62 178.5,120.5C 176.883,119.962 175.216,119.629 173.5,119.5C 172.942,118.21 171.942,117.377 170.5,117C 161.792,116.248 153.125,116.581 144.5,118C 143.944,118.383 143.611,118.883 143.5,119.5C 135.699,121.068 129.033,124.734 123.5,130.5C 120.873,131.092 118.206,131.425 115.5,131.5C 115.814,136.072 114.314,137.405 111,135.5C 108.96,138.197 106.96,140.863 105,143.5C 104.696,141.559 103.863,139.893 102.5,138.5C 103.609,136.786 102.942,136.119 100.5,136.5C 100.5,135.167 100.5,133.833 100.5,132.5C 100.5,131.833 100.833,131.5 101.5,131.5C 103.343,130.754 104.676,129.421 105.5,127.5C 106.298,129.078 106.798,130.744 107,132.5C 108.154,131.257 109.488,130.257 111,129.5C 109.596,127.168 108.762,124.501 108.5,121.5C 109.5,121.5 110.5,121.5 111.5,121.5C 111.343,122.873 111.51,124.207 112,125.5C 113.937,121.565 116.604,118.232 120,115.5C 121.009,113.975 121.509,112.308 121.5,110.5C 124.771,110.646 127.105,109.312 128.5,106.5C 133.094,105.691 137.427,104.191 141.5,102C 144.146,101.503 146.813,101.336 149.5,101.5 Z"/></g>
<g><path style="opacity:0.827" fill="#1e5180" d="M 178.5,120.5 C 182.615,120.62 185.281,122.62 186.5,126.5C 184.184,125.194 181.85,123.861 179.5,122.5C 179.167,121.833 178.833,121.167 178.5,120.5 Z"/></g>
<g><path style="opacity:0.11" fill="#091c3f" d="M 173.5,119.5 C 175.216,119.629 176.883,119.962 178.5,120.5C 178.833,121.167 179.167,121.833 179.5,122.5C 177.181,122.008 175.181,121.008 173.5,119.5 Z"/></g>
<g><path style="opacity:0.156" fill="#0b3160" d="M 173.5,119.5 C 168.684,118.781 163.85,118.114 159,117.5C 153.832,118.223 148.665,118.889 143.5,119.5C 143.611,118.883 143.944,118.383 144.5,118C 153.125,116.581 161.792,116.248 170.5,117C 171.942,117.377 172.942,118.21 173.5,119.5 Z"/></g>
<g><path style="opacity:0.039" fill="#062459" d="M 143.5,119.5 C 131.009,124.326 121.676,132.659 115.5,144.5C 116.845,139.137 119.512,134.47 123.5,130.5C 129.033,124.734 135.699,121.068 143.5,119.5 Z"/></g>
<g><path style="opacity:0.09" fill="#052a47" d="M 94.5,140.5 C 94.0719,143.785 93.0719,146.785 91.5,149.5C 91.5275,146.084 92.5275,143.084 94.5,140.5 Z"/></g>
<g><path style="opacity:0.361" fill="#4e3213" d="M 374.5,147.5 C 367.833,147.5 361.167,147.5 354.5,147.5C 361.182,144.996 367.848,144.996 374.5,147.5 Z"/></g>
<g><path style="opacity:0.282" fill="#610c07" d="M 296.5,154.5 C 293.406,153.787 290.406,152.787 287.5,151.5C 285.615,149.689 283.281,148.522 280.5,148C 273.5,147.333 266.5,147.333 259.5,148C 257.942,148.21 256.609,148.71 255.5,149.5C 253.566,150.11 251.899,151.11 250.5,152.5C 246.077,153.253 242.744,155.587 240.5,159.5C 237.833,161.833 235.167,164.167 232.5,166.5C 246.27,146.964 264.604,141.131 287.5,149C 290.898,150.357 293.898,152.19 296.5,154.5 Z"/></g>
<g><path style="opacity:0.913" fill="#c32b15" d="M 287.5,151.5 C 286.167,151.5 284.833,151.5 283.5,151.5C 279.363,149.304 274.863,148.304 270,148.5C 265.171,148.958 260.338,149.291 255.5,149.5C 256.609,148.71 257.942,148.21 259.5,148C 266.5,147.333 273.5,147.333 280.5,148C 283.281,148.522 285.615,149.689 287.5,151.5 Z"/></g>
<g><path style="opacity:1" fill="#d9ac2d" d="M 354.5,147.5 C 361.167,147.5 367.833,147.5 374.5,147.5C 374.833,147.5 375.167,147.5 375.5,147.5C 378.53,149.403 381.863,150.737 385.5,151.5C 385.833,151.5 386.167,151.5 386.5,151.5C 386.414,152.496 386.748,153.329 387.5,154C 389.886,155.193 392.22,156.36 394.5,157.5C 394.557,158.609 394.89,159.609 395.5,160.5C 389.886,158.431 384.553,155.598 379.5,152C 365.864,147.818 352.864,149.151 340.5,156C 339.177,156.816 338.511,157.983 338.5,159.5C 337.508,159.328 336.842,159.662 336.5,160.5C 333.859,162.804 331.192,165.138 328.5,167.5C 328.5,166.833 328.5,166.167 328.5,165.5C 332.5,162.167 336.167,158.5 339.5,154.5C 341.404,154.262 342.738,153.262 343.5,151.5C 347.533,150.975 351.2,149.642 354.5,147.5 Z"/></g>
<g><path style="opacity:0.322" fill="#4c340b" d="M 375.5,147.5 C 379.327,147.752 382.66,149.085 385.5,151.5C 381.863,150.737 378.53,149.403 375.5,147.5 Z"/></g>
<g><path style="opacity:0.361" fill="#0f345a" d="M 449.5,147.5 C 445.5,149.5 441.5,151.5 437.5,153.5C 436.833,153.5 436.167,153.5 435.5,153.5C 439.51,150.157 444.176,148.157 449.5,147.5 Z"/></g>
<g><path style="opacity:0.502" fill="#654510" d="M 354.5,147.5 C 351.2,149.642 347.533,150.975 343.5,151.5C 346.8,149.358 350.467,148.025 354.5,147.5 Z"/></g>
<g><path style="opacity:0.086" fill="#072b53" d="M 463.5,147.5 C 466.716,147.345 469.383,148.345 471.5,150.5C 468.514,150.097 465.848,149.097 463.5,147.5 Z"/></g>
<g><path style="opacity:1" fill="#2f8dd7" d="M 480.5,158.5 C 479.952,161.084 478.285,162.084 475.5,161.5C 475.5,160.167 475.5,158.833 475.5,157.5C 473.833,157.5 472.167,157.5 470.5,157.5C 471.229,163.223 474.562,166.223 480.5,166.5C 481.915,168.428 482.749,171.762 483,176.5C 483.333,174.833 483.667,173.167 484,171.5C 484.798,175.781 484.298,179.781 482.5,183.5C 481.642,180.093 480.475,176.76 479,173.5C 478.329,172.748 477.496,172.414 476.5,172.5C 475.738,170.738 474.404,169.738 472.5,169.5C 471.766,168.292 471.433,166.959 471.5,165.5C 469.284,165.725 467.617,164.892 466.5,163C 464.333,162.833 462.167,162.667 460,162.5C 457.39,162.533 455.223,163.2 453.5,164.5C 452.5,164.5 451.5,164.5 450.5,164.5C 449.178,164.67 448.011,164.337 447,163.5C 446.683,165.301 446.016,165.634 445,164.5C 443.992,166.259 442.492,167.426 440.5,168C 439.289,169.113 439.289,170.28 440.5,171.5C 439.726,172.711 438.893,172.711 438,171.5C 436.331,173.861 434.665,176.194 433,178.5C 431.621,173.964 431.121,169.297 431.5,164.5C 432.675,164.719 433.675,164.386 434.5,163.5C 434.852,160.691 436.018,158.358 438,156.5C 440.167,158 442.333,159.5 444.5,161C 448.201,161.645 449.035,160.478 447,157.5C 443.463,158.818 441.629,157.485 441.5,153.5C 448.234,149.669 455.567,148.503 463.5,150C 469.485,152.141 475.152,154.974 480.5,158.5 Z"/></g>
<g><path style="opacity:0.6" fill="#650b07" d="M 590.5,149.5 C 571.256,144.981 555.59,150.315 543.5,165.5C 547.448,157.393 553.782,151.893 562.5,149C 572.037,145.525 581.37,145.692 590.5,149.5 Z"/></g>
<g><path style="opacity:0.165" fill="#630803" d="M 590.5,149.5 C 593.331,150.079 595.664,151.412 597.5,153.5C 594.674,153.002 592.34,151.669 590.5,149.5 Z"/></g>
<g><path style="opacity:0.231" fill="#5c380d" d="M 343.5,151.5 C 342.738,153.262 341.404,154.262 339.5,154.5C 340.262,152.738 341.596,151.738 343.5,151.5 Z"/></g>
<g><path style="opacity:0.318" fill="#604912" d="M 386.5,151.5 C 389.563,153.025 392.23,155.025 394.5,157.5C 392.22,156.36 389.886,155.193 387.5,154C 386.748,153.329 386.414,152.496 386.5,151.5 Z"/></g>
<g><path style="opacity:0.482" fill="#641309" d="M 296.5,154.5 C 298.01,155.836 299.677,157.003 301.5,158C 302.823,158.816 303.489,159.983 303.5,161.5C 300.167,160.167 297.833,157.833 296.5,154.5 Z"/></g>
<g><path style="opacity:0.173" fill="#660f07" d="M 597.5,153.5 C 602.167,156.167 605.833,159.833 608.5,164.5C 606.833,163.167 605.167,161.833 603.5,160.5C 601.5,158.167 599.5,155.833 597.5,153.5 Z"/></g>
<g><path style="opacity:0.906" fill="#c72719" d="M 250.5,152.5 C 247.193,154.797 243.86,157.13 240.5,159.5C 242.744,155.587 246.077,153.253 250.5,152.5 Z"/></g>
<g><path style="opacity:1" fill="#eab50d" d="M 395.5,160.5 C 396.5,161.167 397.5,161.833 398.5,162.5C 400.262,163.262 401.262,164.596 401.5,166.5C 401.427,168.027 402.094,169.027 403.5,169.5C 403.5,170.833 403.5,172.167 403.5,173.5C 404.926,178.185 405.593,183.018 405.5,188C 405.214,194.547 404.547,201.047 403.5,207.5C 401.973,208.931 400.306,210.265 398.5,211.5C 396.787,210.695 395.121,209.695 393.5,208.5C 394.134,204.324 395.3,200.324 397,196.5C 397.417,189.39 398.084,182.39 399,175.5C 396.867,174.745 395.2,173.412 394,171.5C 392.882,168.145 391.382,164.978 389.5,162C 387.953,161.667 386.62,162.167 385.5,163.5C 383.585,162.291 381.752,160.958 380,159.5C 375.764,160.317 375.598,161.317 379.5,162.5C 378.562,163.553 377.395,164.22 376,164.5C 366.93,162.657 358.097,159.99 349.5,156.5C 347.167,157.833 344.833,157.833 342.5,156.5C 341.614,157.325 341.281,158.325 341.5,159.5C 340.5,159.5 339.5,159.5 338.5,159.5C 338.511,157.983 339.177,156.816 340.5,156C 352.864,149.151 365.864,147.818 379.5,152C 384.553,155.598 389.886,158.431 395.5,160.5 Z"/></g>
<g><path style="opacity:1" fill="#db280c" d="M 283.5,151.5 C 284.833,151.5 286.167,151.5 287.5,151.5C 290.406,152.787 293.406,153.787 296.5,154.5C 297.833,157.833 300.167,160.167 303.5,161.5C 305.464,165.814 307.464,170.147 309.5,174.5C 309.5,175.167 309.5,175.833 309.5,176.5C 307.864,173.26 305.864,170.26 303.5,167.5C 302.571,166.311 302.238,164.978 302.5,163.5C 301.5,163.5 300.5,163.5 299.5,163.5C 299.5,162.5 299.5,161.5 299.5,160.5C 298.5,160.5 297.5,160.5 296.5,160.5C 296.5,161.5 296.5,162.5 296.5,163.5C 295.5,163.5 294.5,163.5 293.5,163.5C 293.643,161.738 293.309,160.071 292.5,158.5C 293.167,157.833 293.833,157.167 294.5,156.5C 292.827,154.914 290.827,154.247 288.5,154.5C 288.244,156.792 288.577,158.959 289.5,161C 287.689,163.947 285.689,163.947 283.5,161C 281.421,160.192 279.421,160.359 277.5,161.5C 279.547,163.015 281.881,163.849 284.5,164C 288.473,166.77 290.807,170.604 291.5,175.5C 290.5,174.833 289.5,174.167 288.5,173.5C 287.833,170.833 286.167,169.167 283.5,168.5C 282.313,166.025 280.313,165.025 277.5,165.5C 275.538,163.983 273.205,163.316 270.5,163.5C 268.631,163.507 266.964,163.84 265.5,164.5C 261.968,164.31 258.635,164.977 255.5,166.5C 255.215,164.712 255.548,163.045 256.5,161.5C 262.738,160.602 269.071,160.602 275.5,161.5C 275.5,160.167 275.5,158.833 275.5,157.5C 279.869,158.077 283.869,157.243 287.5,155C 286.409,153.45 285.076,152.283 283.5,151.5 Z"/></g>
<g><path style="opacity:0.51" fill="#805618" d="M 339.5,154.5 C 336.167,158.5 332.5,162.167 328.5,165.5C 331.167,160.833 334.833,157.167 339.5,154.5 Z"/></g>
<g><path style="opacity:0.388" fill="#17385e" d="M 435.5,153.5 C 430.93,157.614 426.597,161.947 422.5,166.5C 425.263,160.614 429.597,156.281 435.5,153.5 Z"/></g>
<g><path style="opacity:1" fill="#d6280d" d="M 590.5,149.5 C 592.34,151.669 594.674,153.002 597.5,153.5C 599.5,155.833 601.5,158.167 603.5,160.5C 598.177,156.667 592.51,153.501 586.5,151C 579.833,150.333 573.167,150.333 566.5,151C 565.584,151.374 564.75,151.874 564,152.5C 563.731,157.034 562.898,161.367 561.5,165.5C 563.5,165.5 565.5,165.5 567.5,165.5C 565.391,166.65 563.391,167.984 561.5,169.5C 561.026,167.208 560.026,166.041 558.5,166C 559.127,162.901 559.127,159.734 558.5,156.5C 553.251,159.737 548.251,163.404 543.5,167.5C 543.5,166.833 543.5,166.167 543.5,165.5C 555.59,150.315 571.256,144.981 590.5,149.5 Z"/></g>
<g><path style="opacity:0.408" fill="#5e4d0d" d="M 394.5,157.5 C 396.587,158.585 397.92,160.251 398.5,162.5C 397.5,161.833 396.5,161.167 395.5,160.5C 394.89,159.609 394.557,158.609 394.5,157.5 Z"/></g>
<g><path style="opacity:1" fill="#e62403" d="M 603.5,160.5 C 604.031,162.544 605.198,164.211 607,165.5C 607.539,168.529 608.206,171.529 609,174.5C 611.172,175.509 612.338,177.176 612.5,179.5C 610.409,179.682 608.409,179.348 606.5,178.5C 605.304,178.846 605.304,179.346 606.5,180C 604.152,180.346 602.319,181.513 601,183.5C 600.667,181.167 600.333,178.833 600,176.5C 598.913,178.932 598.413,178.598 598.5,175.5C 597.167,175.5 595.833,175.5 594.5,175.5C 593.385,165.905 587.885,161.572 578,162.5C 576.293,162.508 574.793,162.842 573.5,163.5C 571.421,163.971 569.421,164.637 567.5,165.5C 565.5,165.5 563.5,165.5 561.5,165.5C 562.898,161.367 563.731,157.034 564,152.5C 564.75,151.874 565.584,151.374 566.5,151C 573.167,150.333 579.833,150.333 586.5,151C 592.51,153.501 598.177,156.667 603.5,160.5 Z"/></g>
<g><path style="opacity:0.535" fill="#174372" d="M 220.5,160.5 C 220.5,160.833 220.5,161.167 220.5,161.5C 200.242,160.512 179.909,160.179 159.5,160.5C 159.214,166.259 159.548,171.925 160.5,177.5C 159.833,177.5 159.167,177.5 158.5,177.5C 157.191,171.629 157.191,165.629 158.5,159.5C 178.825,158.334 199.158,158.167 219.5,159C 220.056,159.383 220.389,159.883 220.5,160.5 Z"/></g>
<g><path style="opacity:1" fill="#3980b4" d="M 435.5,153.5 C 436.167,153.5 436.833,153.5 437.5,153.5C 436.542,154.962 435.376,156.295 434,157.5C 434.311,158.935 434.145,160.268 433.5,161.5C 433.167,161.833 432.833,162.167 432.5,162.5C 431.742,161.189 430.742,160.689 429.5,161C 425.964,165.237 422.798,169.737 420,174.5C 418.671,182.783 417.838,191.116 417.5,199.5C 417.167,199.5 416.833,199.5 416.5,199.5C 416.5,193.5 416.5,187.5 416.5,181.5C 417.924,179.485 418.59,177.152 418.5,174.5C 419.326,171.515 420.659,168.849 422.5,166.5C 426.597,161.947 430.93,157.614 435.5,153.5 Z"/></g>
<g><path style="opacity:1" fill="#2586d6" d="M 123.5,130.5 C 119.512,134.47 116.845,139.137 115.5,144.5C 112.323,148.138 110.489,152.472 110,157.5C 108.854,164.877 109.687,171.877 112.5,178.5C 113.639,185.776 116.639,192.11 121.5,197.5C 120.539,201.996 118.206,202.663 114.5,199.5C 113.654,197.281 113.988,195.114 115.5,193C 113.68,191.193 112.513,189.027 112,186.5C 111.882,189.371 111.216,192.038 110,194.5C 109.5,194 109,193.5 108.5,193C 109.116,191.6 109.449,190.1 109.5,188.5C 107.812,184.77 106.479,180.77 105.5,176.5C 105.833,175.833 106.167,175.167 106.5,174.5C 105.726,170.221 105.226,165.887 105,161.5C 103.982,160.294 103.482,160.627 103.5,162.5C 104.915,171.554 104.081,180.554 101,189.5C 99.1299,187.752 97.9632,185.585 97.5,183C 98.1667,182.667 98.8333,182.333 99.5,182C 99.2155,180.044 99.2155,177.877 99.5,175.5C 98.5,175.5 97.5,175.5 96.5,175.5C 96.7525,178.32 96.2525,180.986 95,183.5C 94.5645,177.735 93.7312,172.068 92.5,166.5C 92.9339,161.161 93.4339,155.827 94,150.5C 94.6667,149.833 95.3333,149.167 96,148.5C 96.4264,142.948 97.5931,137.615 99.5,132.5C 99.8333,132.5 100.167,132.5 100.5,132.5C 100.5,133.833 100.5,135.167 100.5,136.5C 102.942,136.119 103.609,136.786 102.5,138.5C 103.863,139.893 104.696,141.559 105,143.5C 106.96,140.863 108.96,138.197 111,135.5C 114.314,137.405 115.814,136.072 115.5,131.5C 118.206,131.425 120.873,131.092 123.5,130.5 Z"/></g>
<g><path style="opacity:1" fill="#2f71a8" d="M 472.5,169.5 C 469.648,167.909 466.648,166.576 463.5,165.5C 460.375,164.521 457.042,164.187 453.5,164.5C 455.223,163.2 457.39,162.533 460,162.5C 462.167,162.667 464.333,162.833 466.5,163C 467.617,164.892 469.284,165.725 471.5,165.5C 471.433,166.959 471.766,168.292 472.5,169.5 Z"/></g>
<g><path style="opacity:0.333" fill="#0c2860" d="M 115.5,144.5 C 111.458,155.519 110.458,166.852 112.5,178.5C 109.687,171.877 108.854,164.877 110,157.5C 110.489,152.472 112.323,148.138 115.5,144.5 Z"/></g>
<g><path style="opacity:0.545" fill="#6e0d06" d="M 265.5,164.5 C 266.964,163.84 268.631,163.507 270.5,163.5C 273.205,163.316 275.538,163.983 277.5,165.5C 273.534,164.838 269.534,164.505 265.5,164.5 Z"/></g>
<g><path style="opacity:1" fill="#e52605" d="M 283.5,151.5 C 285.076,152.283 286.409,153.45 287.5,155C 283.869,157.243 279.869,158.077 275.5,157.5C 275.5,158.833 275.5,160.167 275.5,161.5C 269.071,160.602 262.738,160.602 256.5,161.5C 255.548,163.045 255.215,164.712 255.5,166.5C 253.902,168.698 252.569,171.031 251.5,173.5C 251.5,174.167 251.167,174.5 250.5,174.5C 248.806,175.527 247.473,176.861 246.5,178.5C 246.167,178.5 245.833,178.5 245.5,178.5C 244.518,179.141 243.518,179.807 242.5,180.5C 241.667,179.5 240.833,178.5 240,177.5C 240.179,173.767 241.012,170.1 242.5,166.5C 242.333,165.833 242.167,165.167 242,164.5C 241.259,165.641 240.425,165.641 239.5,164.5C 238.052,169.503 237.385,174.836 237.5,180.5C 234.671,180.675 233.004,179.342 232.5,176.5C 231.824,177.602 231.158,178.602 230.5,179.5C 230.833,176.833 231.167,174.167 231.5,171.5C 232.301,169.958 232.634,168.292 232.5,166.5C 235.167,164.167 237.833,161.833 240.5,159.5C 243.86,157.13 247.193,154.797 250.5,152.5C 251.899,151.11 253.566,150.11 255.5,149.5C 260.338,149.291 265.171,148.958 270,148.5C 274.863,148.304 279.363,149.304 283.5,151.5 Z"/></g>
<g><path style="opacity:0.494" fill="#641105" d="M 277.5,165.5 C 280.313,165.025 282.313,166.025 283.5,168.5C 281.456,167.492 279.456,166.492 277.5,165.5 Z"/></g>
<g><path style="opacity:0.157" fill="#0e325b" d="M 450.5,164.5 C 451.5,164.5 452.5,164.5 453.5,164.5C 457.042,164.187 460.375,164.521 463.5,165.5C 455.495,164.283 448.495,166.283 442.5,171.5C 442.511,169.983 443.177,168.816 444.5,168C 446.727,167.059 448.727,165.892 450.5,164.5 Z"/></g>
<g><path style="opacity:0.514" fill="#7c160d" d="M 573.5,163.5 C 576.698,162.964 579.365,163.631 581.5,165.5C 570.558,164.634 562.558,168.968 557.5,178.5C 557.5,177.833 557.5,177.167 557.5,176.5C 558.441,174.95 559.107,173.284 559.5,171.5C 559.833,170.5 560.5,169.833 561.5,169.5C 563.391,167.984 565.391,166.65 567.5,165.5C 569.421,164.637 571.421,163.971 573.5,163.5 Z"/></g>
<g><path style="opacity:0.427" fill="#0d3060" d="M 220.5,160.5 C 221.222,160.918 221.722,161.584 222,162.5C 222.788,173.938 221.288,184.938 217.5,195.5C 218.716,188.868 219.716,182.201 220.5,175.5C 220.5,170.833 220.5,166.167 220.5,161.5C 220.5,161.167 220.5,160.833 220.5,160.5 Z"/></g>
<g><path style="opacity:0.137" fill="#50320c" d="M 328.5,165.5 C 328.5,166.167 328.5,166.833 328.5,167.5C 327.833,167.833 327.167,168.167 326.5,168.5C 326.427,166.973 327.094,165.973 328.5,165.5 Z"/></g>
<g><path style="opacity:0.216" fill="#76100d" d="M 265.5,164.5 C 260.221,166.477 255.554,169.477 251.5,173.5C 252.569,171.031 253.902,168.698 255.5,166.5C 258.635,164.977 261.968,164.31 265.5,164.5 Z"/></g>
<g><path style="opacity:0.157" fill="#583c0e" d="M 401.5,166.5 C 402.906,166.973 403.573,167.973 403.5,169.5C 402.094,169.027 401.427,168.027 401.5,166.5 Z"/></g>
<g><path style="opacity:0.31" fill="#620704" d="M 283.5,168.5 C 286.167,169.167 287.833,170.833 288.5,173.5C 286.5,172.167 284.833,170.5 283.5,168.5 Z"/></g>
<g><path style="opacity:0.682" fill="#6b130a" d="M 303.5,161.5 C 308.602,166.371 311.602,172.371 312.5,179.5C 311.313,177.928 310.313,176.261 309.5,174.5C 307.464,170.147 305.464,165.814 303.5,161.5 Z"/></g>
<g><path style="opacity:0.553" fill="#650c08" d="M 232.5,166.5 C 232.634,168.292 232.301,169.958 231.5,171.5C 230.5,172.833 229.5,174.167 228.5,175.5C 228.692,171.898 230.026,168.898 232.5,166.5 Z"/></g>
<g><path style="opacity:0.969" fill="#c52513" d="M 573.5,163.5 C 574.793,162.842 576.293,162.508 578,162.5C 587.885,161.572 593.385,165.905 594.5,175.5C 584.998,179.223 575.332,182.556 565.5,185.5C 570.446,183.694 575.112,181.361 579.5,178.5C 582.481,178.818 584.815,177.818 586.5,175.5C 591.123,176.592 592.956,174.925 592,170.5C 590.471,169.271 589.304,167.771 588.5,166C 586.19,165.503 583.857,165.337 581.5,165.5C 579.365,163.631 576.698,162.964 573.5,163.5 Z"/></g>
<g><path style="opacity:0.533" fill="#62120b" d="M 608.5,164.5 C 612.336,168.295 614.669,172.962 615.5,178.5C 615.471,180.029 614.804,181.196 613.5,182C 610.256,183.47 606.923,184.637 603.5,185.5C 604.59,184.143 605.924,183.143 607.5,182.5C 611.121,182.555 613.121,180.888 613.5,177.5C 612.057,172.969 610.39,168.636 608.5,164.5 Z"/></g>
<g><path style="opacity:0.766" fill="#3171a8" d="M 463.5,147.5 C 465.848,149.097 468.514,150.097 471.5,150.5C 472.492,150.328 473.158,150.662 473.5,151.5C 477.833,157.96 480.166,157.627 480.5,150.5C 486.167,149.167 491.833,149.167 497.5,150.5C 497.5,177.833 497.5,205.167 497.5,232.5C 497.802,235.059 497.468,237.393 496.5,239.5C 496.809,210.135 496.476,180.802 495.5,151.5C 490.833,151.5 486.167,151.5 481.5,151.5C 481.702,153.95 481.369,156.283 480.5,158.5C 475.152,154.974 469.485,152.141 463.5,150C 455.567,148.503 448.234,149.669 441.5,153.5C 440.167,153.5 438.833,153.5 437.5,153.5C 441.5,151.5 445.5,149.5 449.5,147.5C 454.167,146.167 458.833,146.167 463.5,147.5 Z"/></g>
<g><path style="opacity:0.192" fill="#0b2758" d="M 480.5,150.5 C 480.166,157.627 477.833,157.96 473.5,151.5C 475.258,151.877 476.925,152.544 478.5,153.5C 479.176,152.398 479.842,151.398 480.5,150.5 Z"/></g>
<g><path style="opacity:0.141" fill="#142e56" d="M 497.5,150.5 C 498.222,150.918 498.722,151.584 499,152.5C 498.985,179.327 498.485,205.994 497.5,232.5C 497.5,205.167 497.5,177.833 497.5,150.5 Z"/></g>
<g><path style="opacity:0.114" fill="#133a5e" d="M 472.5,169.5 C 474.404,169.738 475.738,170.738 476.5,172.5C 478.06,174.954 479.06,177.62 479.5,180.5C 477.43,176.7 475.097,173.034 472.5,169.5 Z"/></g>
<g><path style="opacity:0.494" fill="#670d08" d="M 581.5,165.5 C 583.857,165.337 586.19,165.503 588.5,166C 589.304,167.771 590.471,169.271 592,170.5C 592.956,174.925 591.123,176.592 586.5,175.5C 591.102,173.488 591.435,170.988 587.5,168C 585.389,167.155 583.389,166.322 581.5,165.5 Z"/></g>
<g><path style="opacity:0.059" fill="#5a0401" d="M 288.5,173.5 C 289.5,174.167 290.5,174.833 291.5,175.5C 291.5,176.5 291.5,177.5 291.5,178.5C 290.11,177.101 289.11,175.434 288.5,173.5 Z"/></g>
<g><path style="opacity:1" fill="#e82803" d="M 309.5,176.5 C 311.124,186.925 310.791,197.259 308.5,207.5C 307.662,207.842 307.328,208.508 307.5,209.5C 306.519,211.309 305.019,212.643 303,213.5C 302.517,214.448 302.351,215.448 302.5,216.5C 300.801,216.34 299.134,216.506 297.5,217C 298.972,220.552 297.638,222.218 293.5,222C 292.663,223.011 292.33,224.178 292.5,225.5C 289.057,226.059 286.057,227.393 283.5,229.5C 282.833,229.5 282.167,229.5 281.5,229.5C 278.102,229.82 274.768,229.487 271.5,228.5C 269.631,225.887 267.297,223.721 264.5,222C 265.833,221.333 267.167,220.667 268.5,220C 268.167,219.667 267.833,219.333 267.5,219C 271.871,218.828 276.204,218.328 280.5,217.5C 283.194,214.97 286.028,212.637 289,210.5C 289.494,212.134 289.66,213.801 289.5,215.5C 295.378,213.278 297.045,209.111 294.5,203C 296.637,197.873 296.97,192.706 295.5,187.5C 295.665,184.482 295.498,181.482 295,178.5C 293.961,177.29 292.794,176.29 291.5,175.5C 290.807,170.604 288.473,166.77 284.5,164C 281.881,163.849 279.547,163.015 277.5,161.5C 279.421,160.359 281.421,160.192 283.5,161C 285.689,163.947 287.689,163.947 289.5,161C 288.577,158.959 288.244,156.792 288.5,154.5C 290.827,154.247 292.827,154.914 294.5,156.5C 293.833,157.167 293.167,157.833 292.5,158.5C 293.309,160.071 293.643,161.738 293.5,163.5C 294.5,163.5 295.5,163.5 296.5,163.5C 296.5,162.5 296.5,161.5 296.5,160.5C 297.5,160.5 298.5,160.5 299.5,160.5C 299.5,161.5 299.5,162.5 299.5,163.5C 300.5,163.5 301.5,163.5 302.5,163.5C 302.238,164.978 302.571,166.311 303.5,167.5C 305.864,170.26 307.864,173.26 309.5,176.5 Z"/></g>
<g><path style="opacity:0.447" fill="#875c19" d="M 328.5,167.5 C 323.005,176.335 321.005,186.002 322.5,196.5C 321.514,192.03 321.181,187.363 321.5,182.5C 321.999,177.331 323.666,172.664 326.5,168.5C 327.167,168.167 327.833,167.833 328.5,167.5 Z"/></g>
<g><path style="opacity:0.208" fill="#0d2551" d="M 158.5,177.5 C 159.167,177.5 159.833,177.5 160.5,177.5C 174.5,177.5 188.5,177.5 202.5,177.5C 202.706,180.495 202.04,183.162 200.5,185.5C 200.5,183.833 200.5,182.167 200.5,180.5C 201.043,180.44 201.376,180.107 201.5,179.5C 198.691,178.2 196.024,178.2 193.5,179.5C 182.828,179.667 172.161,179.5 161.5,179C 160.263,178.768 159.263,178.268 158.5,177.5 Z"/></g>
<g><path style="opacity:0.353" fill="#123c58" d="M 418.5,174.5 C 418.59,177.152 417.924,179.485 416.5,181.5C 416.41,178.848 417.076,176.515 418.5,174.5 Z"/></g>
<g><path style="opacity:0.02" fill="#00083d" d="M 193.5,179.5 C 196.024,178.2 198.691,178.2 201.5,179.5C 201.376,180.107 201.043,180.44 200.5,180.5C 198.393,179.532 196.059,179.198 193.5,179.5 Z"/></g>
<g><path style="opacity:0.271" fill="#7d5911" d="M 383.5,174.5 C 384.496,174.414 385.329,174.748 386,175.5C 387.341,178.022 388.174,180.689 388.5,183.5C 388.167,183.5 387.833,183.5 387.5,183.5C 386.934,180.127 385.601,177.127 383.5,174.5 Z"/></g>
<g><path style="opacity:1" fill="#e42704" d="M 561.5,169.5 C 560.5,169.833 559.833,170.5 559.5,171.5C 553.886,176.016 551.719,182.016 553,189.5C 553.249,190.624 553.749,191.624 554.5,192.5C 560.437,188.737 564.437,190.071 566.5,196.5C 565.388,197.265 564.721,198.265 564.5,199.5C 564.5,199.833 564.5,200.167 564.5,200.5C 558.471,199.165 555.804,201.498 556.5,207.5C 556.631,208.239 556.464,208.906 556,209.5C 552.966,206.486 551.799,202.819 552.5,198.5C 551.5,198.5 550.5,198.5 549.5,198.5C 548.948,200.331 548.948,201.997 549.5,203.5C 548.076,205.291 546.742,207.125 545.5,209C 546.95,209.117 548.45,208.95 550,208.5C 551.607,208.769 552.774,209.603 553.5,211C 551.421,212.64 549.088,213.806 546.5,214.5C 546.302,211.215 544.635,209.548 541.5,209.5C 539.116,205.945 537.783,201.945 537.5,197.5C 536.831,186.875 538.831,176.875 543.5,167.5C 548.251,163.404 553.251,159.737 558.5,156.5C 559.127,159.734 559.127,162.901 558.5,166C 560.026,166.041 561.026,167.208 561.5,169.5 Z"/></g>
<g><path style="opacity:1" fill="#2b8ad9" d="M 220.5,175.5 C 219.716,182.201 218.716,188.868 217.5,195.5C 216.407,197.349 215.074,199.016 213.5,200.5C 212.172,197.202 210.672,193.869 209,190.5C 206.097,191.069 204.097,192.735 203,195.5C 202.623,191.549 203.457,187.882 205.5,184.5C 207.016,185.804 207.682,185.304 207.5,183C 207.375,181.373 206.875,179.873 206,178.5C 205.667,178.833 205.333,179.167 205,179.5C 204.51,178.207 204.343,176.873 204.5,175.5C 194.956,173.678 185.29,173.011 175.5,173.5C 175.5,171.5 175.5,169.5 175.5,167.5C 185.857,167.672 196.19,167.339 206.5,166.5C 206.5,165.5 206.5,164.5 206.5,163.5C 195.781,163.19 185.115,163.523 174.5,164.5C 174.306,168.07 174.306,171.57 174.5,175C 181.833,175.333 189.167,175.667 196.5,176C 184.807,176.746 173.14,176.58 161.5,175.5C 162.019,170.758 162.019,166.091 161.5,161.5C 180.576,161.461 199.576,161.627 218.5,162C 219.142,166.601 219.809,171.101 220.5,175.5 Z"/></g>
<g><path style="opacity:0.584" fill="#600f08" d="M 250.5,174.5 C 247.897,181.517 246.897,188.851 247.5,196.5C 245.967,194.366 245.3,191.866 245.5,189C 245.804,185.489 246.137,181.989 246.5,178.5C 247.473,176.861 248.806,175.527 250.5,174.5 Z"/></g>
<g><path style="opacity:0.251" fill="#5f460f" d="M 403.5,169.5 C 406,172.66 407.333,176.327 407.5,180.5C 406.433,178.036 405.1,175.703 403.5,173.5C 403.5,172.167 403.5,170.833 403.5,169.5 Z"/></g>
<g><path style="opacity:1" fill="#e12807" d="M 603.5,160.5 C 605.167,161.833 606.833,163.167 608.5,164.5C 610.39,168.636 612.057,172.969 613.5,177.5C 613.121,180.888 611.121,182.555 607.5,182.5C 600.424,184.165 593.758,186.998 587.5,191C 582.637,191.725 578.304,193.559 574.5,196.5C 571.156,197.508 567.823,198.508 564.5,199.5C 564.721,198.265 565.388,197.265 566.5,196.5C 564.437,190.071 560.437,188.737 554.5,192.5C 553.749,191.624 553.249,190.624 553,189.5C 551.719,182.016 553.886,176.016 559.5,171.5C 559.107,173.284 558.441,174.95 557.5,176.5C 556.034,177.347 555.2,178.68 555,180.5C 554.502,183.482 554.335,186.482 554.5,189.5C 558.842,189.722 562.509,188.389 565.5,185.5C 575.332,182.556 584.998,179.223 594.5,175.5C 595.833,175.5 597.167,175.5 598.5,175.5C 598.413,178.598 598.913,178.932 600,176.5C 600.333,178.833 600.667,181.167 601,183.5C 602.319,181.513 604.152,180.346 606.5,180C 605.304,179.346 605.304,178.846 606.5,178.5C 608.409,179.348 610.409,179.682 612.5,179.5C 612.338,177.176 611.172,175.509 609,174.5C 608.206,171.529 607.539,168.529 607,165.5C 605.198,164.211 604.031,162.544 603.5,160.5 Z"/></g>
<g><path style="opacity:0.635" fill="#690808" d="M 586.5,175.5 C 584.815,177.818 582.481,178.818 579.5,178.5C 581.426,176.707 583.759,175.707 586.5,175.5 Z"/></g>
<g><path style="opacity:0.2" fill="#5d4713" d="M 343.5,177.5 C 343.405,179.786 342.738,181.786 341.5,183.5C 341.5,182.167 341.5,180.833 341.5,179.5C 342.167,178.833 342.833,178.167 343.5,177.5 Z"/></g>
<g><path style="opacity:0.18" fill="#072152" d="M 112.5,178.5 C 115.724,185.948 119.724,192.948 124.5,199.5C 123.5,198.833 122.5,198.167 121.5,197.5C 116.639,192.11 113.639,185.776 112.5,178.5 Z"/></g>
<g><path style="opacity:0.992" fill="#c72a15" d="M 231.5,171.5 C 231.167,174.167 230.833,176.833 230.5,179.5C 229.089,182.47 228.422,185.636 228.5,189C 229.775,193.666 230.608,198.499 231,203.5C 233.076,208.656 235.909,213.323 239.5,217.5C 238.833,217.5 238.167,217.5 237.5,217.5C 235.5,215.167 233.5,212.833 231.5,210.5C 227.559,199.124 226.559,187.457 228.5,175.5C 229.5,174.167 230.5,172.833 231.5,171.5 Z"/></g>
<g><path style="opacity:0.082" fill="#670e05" d="M 291.5,178.5 C 292.15,178.804 292.817,179.137 293.5,179.5C 294.815,184.986 294.815,190.32 293.5,195.5C 293.564,189.738 292.897,184.071 291.5,178.5 Z"/></g>
<g><path style="opacity:0.596" fill="#9f2113" d="M 557.5,176.5 C 557.5,177.167 557.5,177.833 557.5,178.5C 555.882,181.171 555.215,184.171 555.5,187.5C 558.969,187.453 562.302,186.787 565.5,185.5C 562.509,188.389 558.842,189.722 554.5,189.5C 554.335,186.482 554.502,183.482 555,180.5C 555.2,178.68 556.034,177.347 557.5,176.5 Z"/></g>
<g><path style="opacity:0.106" fill="#0a2e51" d="M 479.5,180.5 C 481.006,183.356 481.672,186.523 481.5,190C 481.672,193.477 481.006,196.644 479.5,199.5C 480.833,193.167 480.833,186.833 479.5,180.5 Z"/></g>
<g><path style="opacity:0.318" fill="#590704" d="M 557.5,178.5 C 557.167,181.167 556.833,183.833 556.5,186.5C 564.167,183.833 571.833,181.167 579.5,178.5C 575.112,181.361 570.446,183.694 565.5,185.5C 562.302,186.787 558.969,187.453 555.5,187.5C 555.215,184.171 555.882,181.171 557.5,178.5 Z"/></g>
<g><path style="opacity:0.092" fill="#412204" d="M 321.5,182.5 C 321.181,187.363 321.514,192.03 322.5,196.5C 323.167,200.167 323.833,203.833 324.5,207.5C 322.738,204.497 321.572,201.163 321,197.5C 320.184,192.316 320.35,187.316 321.5,182.5 Z"/></g>
<g><path style="opacity:1" fill="#b79727" d="M 403.5,173.5 C 405.1,175.703 406.433,178.036 407.5,180.5C 408.807,186.734 408.807,193.068 407.5,199.5C 406.262,201.214 405.595,203.214 405.5,205.5C 404.833,206.167 404.167,206.833 403.5,207.5C 404.547,201.047 405.214,194.547 405.5,188C 405.593,183.018 404.926,178.185 403.5,173.5 Z"/></g>
<g><path style="opacity:0.067" fill="#0c2a5b" d="M 439.5,175.5 C 436.025,181.329 434.692,187.663 435.5,194.5C 433.847,188.378 434.513,182.378 437.5,176.5C 437.957,175.702 438.624,175.369 439.5,175.5 Z"/></g>
<g><path style="opacity:1" fill="#e9b312" d="M 336.5,160.5 C 336.918,161.222 337.584,161.722 338.5,162C 338.167,162.333 337.833,162.667 337.5,163C 338.227,164.399 338.727,165.899 339,167.5C 340.113,168.711 341.28,168.711 342.5,167.5C 343.363,170.552 342.363,173.052 339.5,175C 340.38,176.356 340.714,177.856 340.5,179.5C 340.167,180.833 339.833,182.167 339.5,183.5C 338.583,189.341 337.75,195.341 337,201.5C 336.333,202.833 335.667,202.833 335,201.5C 334.027,203.392 333.36,205.392 333,207.5C 331.829,205.411 330.496,203.411 329,201.5C 326.061,205.676 327.228,208.676 332.5,210.5C 333.33,212.135 333.497,213.802 333,215.5C 333.414,215.043 333.914,214.709 334.5,214.5C 335.959,217.756 338.126,220.423 341,222.5C 343.129,221.137 343.629,221.471 342.5,223.5C 343.167,224.5 343.833,225.5 344.5,226.5C 346.655,227.001 348.322,228.001 349.5,229.5C 347.565,228.85 345.565,228.517 343.5,228.5C 343.027,227.094 342.027,226.427 340.5,226.5C 338.074,223.068 335.074,220.401 331.5,218.5C 331.5,216.5 330.5,215.5 328.5,215.5C 328.5,215.167 328.5,214.833 328.5,214.5C 328.005,212.518 327.505,210.518 327,208.5C 326.329,207.748 325.496,207.414 324.5,207.5C 323.833,203.833 323.167,200.167 322.5,196.5C 321.005,186.002 323.005,176.335 328.5,167.5C 331.192,165.138 333.859,162.804 336.5,160.5 Z"/></g>
<g><path style="opacity:0.227" fill="#163a59" d="M 416.5,181.5 C 416.5,187.5 416.5,193.5 416.5,199.5C 414.301,193.602 414.301,187.602 416.5,181.5 Z"/></g>
<g><path style="opacity:0.965" fill="#235a7c" d="M 200.5,186.5 C 200.548,192.375 197.882,197.042 192.5,200.5C 195.69,196.119 198.356,191.452 200.5,186.5 Z"/></g>
<g><path style="opacity:0.784" fill="#9e1f15" d="M 543.5,165.5 C 543.5,166.167 543.5,166.833 543.5,167.5C 538.831,176.875 536.831,186.875 537.5,197.5C 536.513,192.695 536.179,187.695 536.5,182.5C 537.097,176.025 539.43,170.358 543.5,165.5 Z"/></g>
<g><path style="opacity:1" fill="#2a8ad3" d="M 99.5,132.5 C 97.5931,137.615 96.4264,142.948 96,148.5C 95.3333,149.167 94.6667,149.833 94,150.5C 93.4339,155.827 92.9339,161.161 92.5,166.5C 93.7312,172.068 94.5645,177.735 95,183.5C 96.2525,180.986 96.7525,178.32 96.5,175.5C 97.5,175.5 98.5,175.5 99.5,175.5C 99.2155,177.877 99.2155,180.044 99.5,182C 98.8333,182.333 98.1667,182.667 97.5,183C 97.9632,185.585 99.1299,187.752 101,189.5C 104.081,180.554 104.915,171.554 103.5,162.5C 103.482,160.627 103.982,160.294 105,161.5C 105.226,165.887 105.726,170.221 106.5,174.5C 106.167,175.167 105.833,175.833 105.5,176.5C 106.479,180.77 107.812,184.77 109.5,188.5C 109.449,190.1 109.116,191.6 108.5,193C 109,193.5 109.5,194 110,194.5C 111.216,192.038 111.882,189.371 112,186.5C 112.513,189.027 113.68,191.193 115.5,193C 113.988,195.114 113.654,197.281 114.5,199.5C 118.206,202.663 120.539,201.996 121.5,197.5C 122.5,198.167 123.5,198.833 124.5,199.5C 124.5,200.167 124.5,200.833 124.5,201.5C 123.258,203.25 121.758,204.917 120,206.5C 119.869,210.056 118.702,213.056 116.5,215.5C 119.787,214.736 122.454,212.903 124.5,210C 128.284,208.69 130.618,209.857 131.5,213.5C 126.212,213.111 123.545,215.444 123.5,220.5C 126.803,221.151 129.47,222.818 131.5,225.5C 130.167,225.5 128.833,225.5 127.5,225.5C 125.696,222.902 123.362,220.735 120.5,219C 119.207,218.51 117.873,218.343 116.5,218.5C 114.431,215.427 111.764,213.094 108.5,211.5C 105.932,207.383 103.098,203.383 100,199.5C 90.8174,183.951 87.9841,167.284 91.5,149.5C 93.0719,146.785 94.0719,143.785 94.5,140.5C 96.1667,137.833 97.8333,135.167 99.5,132.5 Z"/></g>
<g><path style="opacity:0.345" fill="#580c05" d="M 312.5,179.5 C 315.234,188.712 314.568,197.712 310.5,206.5C 312.262,197.617 312.928,188.617 312.5,179.5 Z"/></g>
<g><path style="opacity:0.775" fill="#c12b16" d="M 291.5,175.5 C 292.794,176.29 293.961,177.29 295,178.5C 295.498,181.482 295.665,184.482 295.5,187.5C 295.665,191.182 295.499,194.848 295,198.5C 294.617,199.056 294.117,199.389 293.5,199.5C 293.5,198.167 293.5,196.833 293.5,195.5C 294.815,190.32 294.815,184.986 293.5,179.5C 292.817,179.137 292.15,178.804 291.5,178.5C 291.5,177.5 291.5,176.5 291.5,175.5 Z"/></g>
<g><path style="opacity:0.647" fill="#8a1b0c" d="M 607.5,182.5 C 605.924,183.143 604.59,184.143 603.5,185.5C 594.681,189.403 585.681,193.069 576.5,196.5C 575.833,196.5 575.167,196.5 574.5,196.5C 578.304,193.559 582.637,191.725 587.5,191C 593.758,186.998 600.424,184.165 607.5,182.5 Z"/></g>
<g><path style="opacity:1" fill="#e7b511" d="M 398.5,211.5 C 397.833,213.5 397.167,215.5 396.5,217.5C 392.828,217.183 391.162,218.849 391.5,222.5C 390.167,222.5 388.833,222.5 387.5,222.5C 387.5,223.5 387.5,224.5 387.5,225.5C 382.641,226.988 377.641,227.655 372.5,227.5C 372.5,228.5 372.5,229.5 372.5,230.5C 368.5,230.5 364.5,230.5 360.5,230.5C 361.429,229.685 362.429,228.852 363.5,228C 355.913,227.55 355.413,226.05 362,223.5C 364.306,224.449 366.639,225.449 369,226.5C 370.44,225.852 371.94,225.519 373.5,225.5C 373.595,222.303 372.928,219.303 371.5,216.5C 371.5,216.167 371.5,215.833 371.5,215.5C 371.842,214.662 372.508,214.328 373.5,214.5C 375.632,214.446 376.965,213.446 377.5,211.5C 378.167,211.5 378.833,211.5 379.5,211.5C 384.002,209.662 386.669,206.328 387.5,201.5C 389.508,195.451 389.841,189.451 388.5,183.5C 388.174,180.689 387.341,178.022 386,175.5C 385.329,174.748 384.496,174.414 383.5,174.5C 383.5,174.167 383.5,173.833 383.5,173.5C 382.833,170.833 381.167,169.167 378.5,168.5C 377.508,168.672 376.842,168.338 376.5,167.5C 374.155,164.925 371.155,163.925 367.5,164.5C 362.407,163.096 357.407,163.762 352.5,166.5C 351.702,166.957 351.369,167.624 351.5,168.5C 350.205,169.488 348.872,170.488 347.5,171.5C 345.738,172.262 344.738,173.596 344.5,175.5C 344.672,176.492 344.338,177.158 343.5,177.5C 342.833,178.167 342.167,178.833 341.5,179.5C 341.167,179.5 340.833,179.5 340.5,179.5C 340.714,177.856 340.38,176.356 339.5,175C 342.363,173.052 343.363,170.552 342.5,167.5C 341.28,168.711 340.113,168.711 339,167.5C 338.727,165.899 338.227,164.399 337.5,163C 337.833,162.667 338.167,162.333 338.5,162C 337.584,161.722 336.918,161.222 336.5,160.5C 336.842,159.662 337.508,159.328 338.5,159.5C 339.5,159.5 340.5,159.5 341.5,159.5C 341.281,158.325 341.614,157.325 342.5,156.5C 344.833,157.833 347.167,157.833 349.5,156.5C 358.097,159.99 366.93,162.657 376,164.5C 377.395,164.22 378.562,163.553 379.5,162.5C 375.598,161.317 375.764,160.317 380,159.5C 381.752,160.958 383.585,162.291 385.5,163.5C 386.62,162.167 387.953,161.667 389.5,162C 391.382,164.978 392.882,168.145 394,171.5C 395.2,173.412 396.867,174.745 399,175.5C 398.084,182.39 397.417,189.39 397,196.5C 395.3,200.324 394.134,204.324 393.5,208.5C 395.121,209.695 396.787,210.695 398.5,211.5 Z"/></g>
<g><path style="opacity:0.016" fill="#65510a" d="M 347.5,171.5 C 347.262,173.404 346.262,174.738 344.5,175.5C 344.738,173.596 345.738,172.262 347.5,171.5 Z"/></g>
<g><path style="opacity:0.361" fill="#815a11" d="M 378.5,168.5 C 381.167,169.167 382.833,170.833 383.5,173.5C 381.5,172.167 379.833,170.5 378.5,168.5 Z"/></g>
<g><path style="opacity:0.294" fill="#7e5b15" d="M 367.5,164.5 C 364.941,164.198 362.607,164.532 360.5,165.5C 357.285,165.905 354.285,166.905 351.5,168.5C 351.369,167.624 351.702,166.957 352.5,166.5C 357.407,163.762 362.407,163.096 367.5,164.5 Z"/></g>
<g><path style="opacity:0.616" fill="#5c4111" d="M 360.5,165.5 C 362.607,164.532 364.941,164.198 367.5,164.5C 371.155,163.925 374.155,164.925 376.5,167.5C 371.324,165.816 365.991,165.15 360.5,165.5 Z"/></g>
<g><path style="opacity:0.184" fill="#0c3151" d="M 91.5,149.5 C 87.9841,167.284 90.8174,183.951 100,199.5C 103.098,203.383 105.932,207.383 108.5,211.5C 95.4511,198.877 89.1178,183.377 89.5,165C 89.2814,159.568 89.9481,154.401 91.5,149.5 Z"/></g>
<g><path style="opacity:0.998" fill="#c53216" d="M 309.5,174.5 C 310.313,176.261 311.313,177.928 312.5,179.5C 312.928,188.617 312.262,197.617 310.5,206.5C 309.833,206.833 309.167,207.167 308.5,207.5C 310.791,197.259 311.124,186.925 309.5,176.5C 309.5,175.833 309.5,175.167 309.5,174.5 Z"/></g>
<g><path style="opacity:0.808" fill="#977925" d="M 340.5,179.5 C 340.833,179.5 341.167,179.5 341.5,179.5C 341.5,180.833 341.5,182.167 341.5,183.5C 341.392,188.87 341.725,194.203 342.5,199.5C 341.069,199.119 340.236,198.119 340,196.5C 339.501,192.179 339.334,187.846 339.5,183.5C 339.833,182.167 340.167,180.833 340.5,179.5 Z"/></g>
<g><path style="opacity:1" fill="#e62904" d="M 245.5,178.5 C 243.78,187.323 244.28,195.99 247,204.5C 247.708,205.381 248.542,206.047 249.5,206.5C 250.272,207.694 251.272,208.694 252.5,209.5C 252.414,210.496 252.748,211.329 253.5,212C 262.943,218.695 272.61,219.195 282.5,213.5C 285.812,210.854 288.812,207.854 291.5,204.5C 292.456,202.925 293.123,201.258 293.5,199.5C 294.117,199.389 294.617,199.056 295,198.5C 295.499,194.848 295.665,191.182 295.5,187.5C 296.97,192.706 296.637,197.873 294.5,203C 297.045,209.111 295.378,213.278 289.5,215.5C 289.66,213.801 289.494,212.134 289,210.5C 286.028,212.637 283.194,214.97 280.5,217.5C 276.204,218.328 271.871,218.828 267.5,219C 267.833,219.333 268.167,219.667 268.5,220C 267.167,220.667 265.833,221.333 264.5,222C 267.297,223.721 269.631,225.887 271.5,228.5C 274.768,229.487 278.102,229.82 281.5,229.5C 281.158,230.338 280.492,230.672 279.5,230.5C 271.149,230.518 262.816,230.185 254.5,229.5C 248.898,226.229 243.898,222.229 239.5,217.5C 235.909,213.323 233.076,208.656 231,203.5C 230.608,198.499 229.775,193.666 228.5,189C 228.422,185.636 229.089,182.47 230.5,179.5C 231.158,178.602 231.824,177.602 232.5,176.5C 233.004,179.342 234.671,180.675 237.5,180.5C 237.385,174.836 238.052,169.503 239.5,164.5C 240.425,165.641 241.259,165.641 242,164.5C 242.167,165.167 242.333,165.833 242.5,166.5C 241.012,170.1 240.179,173.767 240,177.5C 240.833,178.5 241.667,179.5 242.5,180.5C 243.518,179.807 244.518,179.141 245.5,178.5 Z"/></g>
<g><path style="opacity:0.224" fill="#5f0e08" d="M 574.5,196.5 C 575.167,196.5 575.833,196.5 576.5,196.5C 572.797,198.679 568.797,200.345 564.5,201.5C 564.5,201.167 564.5,200.833 564.5,200.5C 564.5,200.167 564.5,199.833 564.5,199.5C 567.823,198.508 571.156,197.508 574.5,196.5 Z"/></g>
<g><path style="opacity:0.373" fill="#610b06" d="M 228.5,175.5 C 226.559,187.457 227.559,199.124 231.5,210.5C 224.904,199.279 223.904,187.612 228.5,175.5 Z"/></g>
<g><path style="opacity:0.451" fill="#6a4714" d="M 387.5,183.5 C 387.833,183.5 388.167,183.5 388.5,183.5C 389.841,189.451 389.508,195.451 387.5,201.5C 386.833,201.833 386.167,202.167 385.5,202.5C 387.252,196.319 387.919,189.986 387.5,183.5 Z"/></g>
<g><path style="opacity:1" fill="#318fd5" d="M 437.5,153.5 C 438.833,153.5 440.167,153.5 441.5,153.5C 441.629,157.485 443.463,158.818 447,157.5C 449.035,160.478 448.201,161.645 444.5,161C 442.333,159.5 440.167,158 438,156.5C 436.018,158.358 434.852,160.691 434.5,163.5C 433.675,164.386 432.675,164.719 431.5,164.5C 431.121,169.297 431.621,173.964 433,178.5C 434.665,176.194 436.331,173.861 438,171.5C 438.893,172.711 439.726,172.711 440.5,171.5C 439.289,170.28 439.289,169.113 440.5,168C 442.492,167.426 443.992,166.259 445,164.5C 446.016,165.634 446.683,165.301 447,163.5C 448.011,164.337 449.178,164.67 450.5,164.5C 448.727,165.892 446.727,167.059 444.5,168C 443.177,168.816 442.511,169.983 442.5,171.5C 441.5,172.833 440.5,174.167 439.5,175.5C 438.624,175.369 437.957,175.702 437.5,176.5C 434.513,182.378 433.847,188.378 435.5,194.5C 435.5,195.167 435.5,195.833 435.5,196.5C 435.345,199.716 436.345,202.383 438.5,204.5C 438.738,206.404 439.738,207.738 441.5,208.5C 441.5,209.167 441.5,209.833 441.5,210.5C 439.528,212.319 437.195,213.319 434.5,213.5C 434.575,217.094 432.909,218.928 429.5,219C 429.043,218.586 428.709,218.086 428.5,217.5C 430.805,215.06 432.471,212.227 433.5,209C 433.167,208.5 432.833,208 432.5,207.5C 425.14,213.498 421.807,211.498 422.5,201.5C 420.446,201.635 418.779,200.968 417.5,199.5C 417.838,191.116 418.671,182.783 420,174.5C 422.798,169.737 425.964,165.237 429.5,161C 430.742,160.689 431.742,161.189 432.5,162.5C 432.833,162.167 433.167,161.833 433.5,161.5C 434.145,160.268 434.311,158.935 434,157.5C 435.376,156.295 436.542,154.962 437.5,153.5 Z"/></g>
<g><path style="opacity:0.533" fill="#6e5a14" d="M 342.5,199.5 C 343.492,201.456 344.492,203.456 345.5,205.5C 343.025,204.313 342.025,202.313 342.5,199.5 Z"/></g>
<g><path style="opacity:0.008" fill="#2c2006" d="M 407.5,199.5 C 407.741,201.898 407.074,203.898 405.5,205.5C 405.595,203.214 406.262,201.214 407.5,199.5 Z"/></g>
<g><path style="opacity:1" fill="#ca2f18" d="M 245.5,178.5 C 245.833,178.5 246.167,178.5 246.5,178.5C 246.137,181.989 245.804,185.489 245.5,189C 245.3,191.866 245.967,194.366 247.5,196.5C 247.5,196.833 247.5,197.167 247.5,197.5C 247.21,200.785 247.877,203.785 249.5,206.5C 248.542,206.047 247.708,205.381 247,204.5C 244.28,195.99 243.78,187.323 245.5,178.5 Z"/></g>
<g><path style="opacity:0.627" fill="#81150f" d="M 247.5,197.5 C 249.672,203.004 253.006,207.671 257.5,211.5C 255.486,211.608 253.82,210.942 252.5,209.5C 251.272,208.694 250.272,207.694 249.5,206.5C 247.877,203.785 247.21,200.785 247.5,197.5 Z"/></g>
<g><path style="opacity:0.196" fill="#10365a" d="M 416.5,199.5 C 416.833,199.5 417.167,199.5 417.5,199.5C 418.167,202.5 418.833,205.5 419.5,208.5C 417.528,205.916 416.528,202.916 416.5,199.5 Z"/></g>
<g><path style="opacity:0.141" fill="#12385f" d="M 435.5,196.5 C 436.871,198.936 437.871,201.603 438.5,204.5C 436.345,202.383 435.345,199.716 435.5,196.5 Z"/></g>
<g><path style="opacity:0.278" fill="#660a04" d="M 563.5,201.5 C 561.31,202.374 560.31,204.041 560.5,206.5C 557.492,202.925 558.492,201.258 563.5,201.5 Z"/></g>
<g><path style="opacity:0.988" fill="#c32c13" d="M 564.5,200.5 C 564.5,200.833 564.5,201.167 564.5,201.5C 564.167,201.5 563.833,201.5 563.5,201.5C 558.492,201.258 557.492,202.925 560.5,206.5C 560.427,208.027 561.094,209.027 562.5,209.5C 562.5,210.167 562.5,210.833 562.5,211.5C 560.228,210.559 558.228,209.226 556.5,207.5C 555.804,201.498 558.471,199.165 564.5,200.5 Z"/></g>
<g><path style="opacity:0.102" fill="#0e2956" d="M 217.5,195.5 C 214.477,205.18 208.81,212.847 200.5,218.5C 204.164,214.668 207.664,210.668 211,206.5C 212.122,204.593 212.955,202.593 213.5,200.5C 215.074,199.016 216.407,197.349 217.5,195.5 Z"/></g>
<g><path style="opacity:0.173" fill="#132752" d="M 438.5,204.5 C 440.262,205.262 441.262,206.596 441.5,208.5C 439.738,207.738 438.738,206.404 438.5,204.5 Z"/></g>
<g><path style="opacity:0.325" fill="#5b460d" d="M 345.5,205.5 C 347.833,207.167 349.833,209.167 351.5,211.5C 348.5,210.5 346.5,208.5 345.5,205.5 Z"/></g>
<g><path style="opacity:0.247" fill="#553d13" d="M 384.5,204.5 C 384.262,206.404 383.262,207.738 381.5,208.5C 381.738,206.596 382.738,205.262 384.5,204.5 Z"/></g>
<g><path style="opacity:0.867" fill="#bd922d" d="M 387.5,201.5 C 386.669,206.328 384.002,209.662 379.5,211.5C 379.833,210.833 380.167,210.167 380.5,209.5C 380.5,208.833 380.833,208.5 381.5,208.5C 383.262,207.738 384.262,206.404 384.5,204.5C 384.328,203.508 384.662,202.842 385.5,202.5C 386.167,202.167 386.833,201.833 387.5,201.5 Z"/></g>
<g><path style="opacity:0.982" fill="#55a142" d="M 510.5,105.5 C 516.167,105.5 521.833,105.5 527.5,105.5C 527.5,134.5 527.5,163.5 527.5,192.5C 526.505,204.655 526.171,216.989 526.5,229.5C 521.167,229.5 515.833,229.5 510.5,229.5C 510.5,188.167 510.5,146.833 510.5,105.5 Z"/></g>
<g><path style="opacity:1" fill="#4fab3b" d="M 526.5,159.5 C 526.216,181.211 525.549,202.877 524.5,224.5C 525.668,225.906 525.335,227.072 523.5,228C 519.514,228.499 515.514,228.666 511.5,228.5C 511.961,212.837 512.295,197.17 512.5,181.5C 513.167,175.654 513.833,169.654 514.5,163.5C 516.952,173.978 516.619,184.311 513.5,194.5C 512.943,197.588 513.61,200.588 515.5,203.5C 517.33,199.72 517.664,195.887 516.5,192C 517.416,191.626 518.25,191.126 519,190.5C 519.27,187.776 519.77,185.109 520.5,182.5C 519.937,175.131 519.27,167.465 518.5,159.5C 517.833,159.167 517.167,158.833 516.5,158.5C 515.341,154.878 515.175,151.211 516,147.5C 517.206,151.155 518.539,154.822 520,158.5C 520.667,157.167 521.333,157.167 522,158.5C 522.048,164.32 522.881,169.987 524.5,175.5C 525.167,170.015 525.833,164.681 526.5,159.5 Z"/></g>
<g><path style="opacity:1" fill="#4caa34" d="M 526.5,159.5 C 525.833,164.681 525.167,170.015 524.5,175.5C 522.881,169.987 522.048,164.32 522,158.5C 521.333,157.167 520.667,157.167 520,158.5C 518.539,154.822 517.206,151.155 516,147.5C 515.175,151.211 515.341,154.878 516.5,158.5C 517.167,158.833 517.833,159.167 518.5,159.5C 519.27,167.465 519.937,175.131 520.5,182.5C 519.77,185.109 519.27,187.776 519,190.5C 518.25,191.126 517.416,191.626 516.5,192C 517.664,195.887 517.33,199.72 515.5,203.5C 513.61,200.588 512.943,197.588 513.5,194.5C 516.619,184.311 516.952,173.978 514.5,163.5C 513.833,169.654 513.167,175.654 512.5,181.5C 511.337,157.003 511.17,132.337 512,107.5C 516.737,106.531 521.57,106.197 526.5,106.5C 526.5,124.167 526.5,141.833 526.5,159.5 Z"/></g>
<g><path style="opacity:0.608" fill="#731613" d="M 310.5,206.5 C 310.008,208.819 309.008,210.819 307.5,212.5C 307.5,211.5 307.5,210.5 307.5,209.5C 307.328,208.508 307.662,207.842 308.5,207.5C 309.167,207.167 309.833,206.833 310.5,206.5 Z"/></g>
<g><path style="opacity:0.478" fill="#7e5619" d="M 324.5,207.5 C 325.496,207.414 326.329,207.748 327,208.5C 327.505,210.518 328.005,212.518 328.5,214.5C 326.412,212.664 325.079,210.331 324.5,207.5 Z"/></g>
<g><path style="opacity:0.102" fill="#4a390e" d="M 405.5,205.5 C 405.539,208.089 404.539,210.089 402.5,211.5C 402.433,210.041 402.766,208.708 403.5,207.5C 404.167,206.833 404.833,206.167 405.5,205.5 Z"/></g>
<g><path style="opacity:0.18" fill="#580702" d="M 560.5,206.5 C 561.906,206.973 562.573,207.973 562.5,209.5C 561.094,209.027 560.427,208.027 560.5,206.5 Z"/></g>
<g><path style="opacity:0.588" fill="#80160c" d="M 293.5,195.5 C 293.5,196.833 293.5,198.167 293.5,199.5C 293.123,201.258 292.456,202.925 291.5,204.5C 288.812,207.854 285.812,210.854 282.5,213.5C 281.167,213.5 279.833,213.5 278.5,213.5C 285.853,209.462 290.853,203.462 293.5,195.5 Z"/></g>
<g><path style="opacity:0.353" fill="#12375b" d="M 476.5,205.5 C 475.833,209.5 473.5,211.833 469.5,212.5C 472.167,210.5 474.5,208.167 476.5,205.5 Z"/></g>
<g><path style="opacity:0.176" fill="#051f4c" d="M 124.5,199.5 C 135.931,209.421 149.264,213.754 164.5,212.5C 159.695,213.487 154.695,213.821 149.5,213.5C 148.167,213.5 146.833,213.5 145.5,213.5C 138.054,210.412 131.054,206.412 124.5,201.5C 124.5,200.833 124.5,200.167 124.5,199.5 Z"/></g>
<g><path style="opacity:0.267" fill="#613c0b" d="M 380.5,209.5 C 380.167,210.167 379.833,210.833 379.5,211.5C 378.833,211.5 378.167,211.5 377.5,211.5C 377.973,210.094 378.973,209.427 380.5,209.5 Z"/></g>
<g><path style="opacity:0.753" fill="#326527" d="M 510.5,105.5 C 510.5,146.833 510.5,188.167 510.5,229.5C 515.833,229.5 521.167,229.5 526.5,229.5C 526.171,216.989 526.505,204.655 527.5,192.5C 527.5,204.5 527.5,216.5 527.5,228.5C 527.423,229.75 526.756,230.583 525.5,231C 520.5,231.667 515.5,231.667 510.5,231C 510,230.5 509.5,230 509,229.5C 508.097,187.987 508.597,146.654 510.5,105.5 Z"/></g>
<g><path style="opacity:0.404" fill="#123458" d="M 108.5,211.5 C 111.764,213.094 114.431,215.427 116.5,218.5C 113.236,216.906 110.569,214.573 108.5,211.5 Z"/></g>
<g><path style="opacity:0.835" fill="#2b638e" d="M 427.5,220.5 C 423.664,217.322 420.998,213.322 419.5,208.5C 420.496,208.586 421.329,208.252 422,207.5C 423.863,211.885 425.697,216.218 427.5,220.5 Z"/></g>
<g><path style="opacity:0.42" fill="#6d100a" d="M 536.5,182.5 C 536.179,187.695 536.513,192.695 537.5,197.5C 537.783,201.945 539.116,205.945 541.5,209.5C 543.075,213.078 545.075,216.411 547.5,219.5C 548.167,220.5 548.833,221.5 549.5,222.5C 537.569,211.706 533.236,198.373 536.5,182.5 Z"/></g>
<g><path style="opacity:0.133" fill="#590b04" d="M 231.5,210.5 C 233.5,212.833 235.5,215.167 237.5,217.5C 239.167,219.5 240.833,221.5 242.5,223.5C 237.202,220.587 233.536,216.253 231.5,210.5 Z"/></g>
<g><path style="opacity:0.663" fill="#7c5714" d="M 377.5,211.5 C 376.965,213.446 375.632,214.446 373.5,214.5C 373.5,214.167 373.5,213.833 373.5,213.5C 374.514,212.326 375.847,211.66 377.5,211.5 Z"/></g>
<g><path style="opacity:0.122" fill="#624d10" d="M 402.5,211.5 C 402.573,213.027 401.906,214.027 400.5,214.5C 400.427,212.973 401.094,211.973 402.5,211.5 Z"/></g>
<g><path style="opacity:1" fill="#2f8ad1" d="M 220.5,161.5 C 220.5,166.167 220.5,170.833 220.5,175.5C 219.809,171.101 219.142,166.601 218.5,162C 199.576,161.627 180.576,161.461 161.5,161.5C 162.019,166.091 162.019,170.758 161.5,175.5C 173.14,176.58 184.807,176.746 196.5,176C 189.167,175.667 181.833,175.333 174.5,175C 174.306,171.57 174.306,168.07 174.5,164.5C 185.115,163.523 195.781,163.19 206.5,163.5C 206.5,164.5 206.5,165.5 206.5,166.5C 196.19,167.339 185.857,167.672 175.5,167.5C 175.5,169.5 175.5,171.5 175.5,173.5C 185.29,173.011 194.956,173.678 204.5,175.5C 204.343,176.873 204.51,178.207 205,179.5C 205.333,179.167 205.667,178.833 206,178.5C 206.875,179.873 207.375,181.373 207.5,183C 207.682,185.304 207.016,185.804 205.5,184.5C 203.457,187.882 202.623,191.549 203,195.5C 204.097,192.735 206.097,191.069 209,190.5C 210.672,193.869 212.172,197.202 213.5,200.5C 212.955,202.593 212.122,204.593 211,206.5C 207.664,210.668 204.164,214.668 200.5,218.5C 200.167,219.5 199.5,220.167 198.5,220.5C 182.176,230.165 164.51,233.832 145.5,231.5C 145.167,231.5 144.833,231.5 144.5,231.5C 142.485,230.076 140.152,229.41 137.5,229.5C 135.5,228.167 133.5,226.833 131.5,225.5C 134.563,225.863 137.563,226.53 140.5,227.5C 143.273,227.841 143.94,227.007 142.5,225C 142.63,223.941 143.13,223.108 144,222.5C 145.814,223.76 147.647,223.76 149.5,222.5C 146.743,221.971 144.243,220.971 142,219.5C 140.187,220.609 139.354,219.942 139.5,217.5C 144.157,218.664 148.823,219.831 153.5,221C 152.5,221.333 151.5,221.667 150.5,222C 152.484,223.81 154.651,223.976 157,222.5C 160.935,223.635 164.602,225.302 168,227.5C 173.279,227.174 177.279,224.841 180,220.5C 180.667,221.833 181.333,221.833 182,220.5C 182.333,221.167 182.667,221.833 183,222.5C 184.011,221.663 185.178,221.33 186.5,221.5C 186.993,219.194 187.326,216.861 187.5,214.5C 189.467,214.261 191.301,214.594 193,215.5C 193.483,214.552 193.649,213.552 193.5,212.5C 194.833,212.5 196.167,212.5 197.5,212.5C 197.5,211.5 197.5,210.5 197.5,209.5C 196.325,209.719 195.325,209.386 194.5,208.5C 196.673,206.249 199.006,204.083 201.5,202C 199.966,199.619 197.966,199.119 195.5,200.5C 194.669,203.672 192.669,205.338 189.5,205.5C 189.723,208.114 188.556,209.781 186,210.5C 185.667,212.167 185.333,213.833 185,215.5C 182.7,214.841 180.034,214.174 177,213.5C 169.898,215.036 162.731,216.036 155.5,216.5C 152.5,216.333 149.5,216.167 146.5,216C 143.598,215.081 143.265,214.248 145.5,213.5C 146.833,213.5 148.167,213.5 149.5,213.5C 160.577,215.41 171.41,214.077 182,209.5C 183.03,209.164 183.53,208.497 183.5,207.5C 187.02,206.647 189.687,204.647 191.5,201.5C 191.5,200.833 191.833,200.5 192.5,200.5C 197.882,197.042 200.548,192.375 200.5,186.5C 200.5,186.167 200.5,185.833 200.5,185.5C 202.04,183.162 202.706,180.495 202.5,177.5C 188.5,177.5 174.5,177.5 160.5,177.5C 159.548,171.925 159.214,166.259 159.5,160.5C 179.909,160.179 200.242,160.512 220.5,161.5 Z"/></g>
<g><path style="opacity:0.135" fill="#530701" d="M 257.5,211.5 C 264.237,214.607 271.237,215.274 278.5,213.5C 277.737,214.268 276.737,214.768 275.5,215C 271.167,215.667 266.833,215.667 262.5,215C 260.119,214.777 258.453,213.61 257.5,211.5 Z"/></g>
<g><path style="opacity:0.071" fill="#492a05" d="M 351.5,211.5 C 358.582,214.59 365.916,215.257 373.5,213.5C 373.5,213.833 373.5,214.167 373.5,214.5C 372.508,214.328 371.842,214.662 371.5,215.5C 366.833,215.5 362.167,215.5 357.5,215.5C 355.19,214.675 353.19,213.342 351.5,211.5 Z"/></g>
<g><path style="opacity:0.224" fill="#113662" d="M 441.5,208.5 C 448.447,214.57 456.447,216.57 465.5,214.5C 463.366,216.033 460.866,216.7 458,216.5C 454.348,216.519 450.848,215.852 447.5,214.5C 445.795,212.808 443.795,211.475 441.5,210.5C 441.5,209.833 441.5,209.167 441.5,208.5 Z"/></g>
<g><path style="opacity:0.455" fill="#aa2612" d="M 252.5,209.5 C 253.82,210.942 255.486,211.608 257.5,211.5C 258.453,213.61 260.119,214.777 262.5,215C 266.833,215.667 271.167,215.667 275.5,215C 276.737,214.768 277.737,214.268 278.5,213.5C 279.833,213.5 281.167,213.5 282.5,213.5C 272.61,219.195 262.943,218.695 253.5,212C 252.748,211.329 252.414,210.496 252.5,209.5 Z"/></g>
<g><path style="opacity:0.282" fill="#62430c" d="M 328.5,215.5 C 330.5,215.5 331.5,216.5 331.5,218.5C 330.167,217.833 329.167,216.833 328.5,215.5 Z"/></g>
<g><path style="opacity:1" fill="#3380b9" d="M 476.5,172.5 C 477.496,172.414 478.329,172.748 479,173.5C 480.475,176.76 481.642,180.093 482.5,183.5C 483.586,192.661 481.919,201.161 477.5,209C 479.921,210.439 479.921,211.939 477.5,213.5C 473.145,216.226 468.478,217.893 463.5,218.5C 459.818,218.665 456.152,218.499 452.5,218C 450.24,217.451 448.574,216.284 447.5,214.5C 450.848,215.852 454.348,216.519 458,216.5C 460.866,216.7 463.366,216.033 465.5,214.5C 466.514,213.326 467.847,212.66 469.5,212.5C 473.5,211.833 475.833,209.5 476.5,205.5C 476.992,203.181 477.992,201.181 479.5,199.5C 481.006,196.644 481.672,193.477 481.5,190C 481.672,186.523 481.006,183.356 479.5,180.5C 479.06,177.62 478.06,174.954 476.5,172.5 Z"/></g>
<g><path style="opacity:0.529" fill="#7d1e13" d="M 600.5,205.5 C 605.203,207.272 609.37,209.939 613,213.5C 613.667,214.833 613.667,216.167 613,217.5C 611.471,220.259 609.305,222.259 606.5,223.5C 606.5,223.167 606.5,222.833 606.5,222.5C 607.976,219.959 609.643,217.626 611.5,215.5C 609.043,211.707 605.71,209.04 601.5,207.5C 601.167,206.833 600.833,206.167 600.5,205.5 Z"/></g>
<g><path style="opacity:1" fill="#c93115" d="M 307.5,209.5 C 307.5,210.5 307.5,211.5 307.5,212.5C 303.741,215.52 300.407,219.02 297.5,223C 296.207,223.49 294.873,223.657 293.5,223.5C 293.5,224.5 293.5,225.5 293.5,226.5C 291.821,226.285 290.821,226.952 290.5,228.5C 288.139,228.674 285.806,229.007 283.5,229.5C 286.057,227.393 289.057,226.059 292.5,225.5C 292.33,224.178 292.663,223.011 293.5,222C 297.638,222.218 298.972,220.552 297.5,217C 299.134,216.506 300.801,216.34 302.5,216.5C 302.351,215.448 302.517,214.448 303,213.5C 305.019,212.643 306.519,211.309 307.5,209.5 Z"/></g>
<g><path style="opacity:0.2" fill="#6c160d" d="M 307.5,212.5 C 304.5,218.833 299.833,223.5 293.5,226.5C 293.5,225.5 293.5,224.5 293.5,223.5C 294.873,223.657 296.207,223.49 297.5,223C 300.407,219.02 303.741,215.52 307.5,212.5 Z"/></g>
<g><path style="opacity:0.882" fill="#c1992b" d="M 357.5,215.5 C 362.167,215.5 366.833,215.5 371.5,215.5C 371.5,215.833 371.5,216.167 371.5,216.5C 368.998,216.749 366.498,217.083 364,217.5C 361.516,217.503 359.349,216.837 357.5,215.5 Z"/></g>
<g><path style="opacity:1" fill="#3490d3" d="M 417.5,199.5 C 418.779,200.968 420.446,201.635 422.5,201.5C 421.807,211.498 425.14,213.498 432.5,207.5C 432.833,208 433.167,208.5 433.5,209C 432.471,212.227 430.805,215.06 428.5,217.5C 428.709,218.086 429.043,218.586 429.5,219C 432.909,218.928 434.575,217.094 434.5,213.5C 437.195,213.319 439.528,212.319 441.5,210.5C 443.795,211.475 445.795,212.808 447.5,214.5C 448.574,216.284 450.24,217.451 452.5,218C 456.152,218.499 459.818,218.665 463.5,218.5C 467.834,218.551 471.5,220.051 474.5,223C 473.62,224.356 473.286,225.856 473.5,227.5C 470.667,229.164 468,230.831 465.5,232.5C 465.167,232.5 464.833,232.5 464.5,232.5C 459.156,232.666 453.823,232.499 448.5,232C 444.385,230.777 440.718,228.777 437.5,226C 436.207,225.51 434.873,225.343 433.5,225.5C 432.089,223.086 430.089,221.419 427.5,220.5C 425.697,216.218 423.863,211.885 422,207.5C 421.329,208.252 420.496,208.586 419.5,208.5C 418.833,205.5 418.167,202.5 417.5,199.5 Z"/></g>
<g><path style="opacity:0.863" fill="#9b2312" d="M 237.5,217.5 C 238.167,217.5 238.833,217.5 239.5,217.5C 243.898,222.229 248.898,226.229 254.5,229.5C 254.5,229.833 254.5,230.167 254.5,230.5C 249.538,229.69 245.538,227.357 242.5,223.5C 240.833,221.5 239.167,219.5 237.5,217.5 Z"/></g>
<g><path style="opacity:1" fill="#2f8ed6" d="M 496.5,239.5 C 494.938,239.733 493.605,240.4 492.5,241.5C 490.97,242.067 489.47,242.733 488,243.5C 486.743,241.254 484.91,239.921 482.5,239.5C 482.172,234.125 482.505,228.792 483.5,223.5C 485.455,225.668 486.121,228.002 485.5,230.5C 487.468,225.644 488.301,220.644 488,215.5C 487.667,217.167 487.333,218.833 487,220.5C 486.98,216.998 485.814,213.998 483.5,211.5C 482.167,213.5 482.167,215.5 483.5,217.5C 484.192,216.975 484.692,216.308 485,215.5C 485.49,216.793 485.657,218.127 485.5,219.5C 483.641,219.461 482.308,220.294 481.5,222C 475.52,221.495 474.187,218.662 477.5,213.5C 479.921,211.939 479.921,210.439 477.5,209C 481.919,201.161 483.586,192.661 482.5,183.5C 484.298,179.781 484.798,175.781 484,171.5C 483.667,173.167 483.333,174.833 483,176.5C 482.749,171.762 481.915,168.428 480.5,166.5C 474.562,166.223 471.229,163.223 470.5,157.5C 472.167,157.5 473.833,157.5 475.5,157.5C 475.5,158.833 475.5,160.167 475.5,161.5C 478.285,162.084 479.952,161.084 480.5,158.5C 481.369,156.283 481.702,153.95 481.5,151.5C 486.167,151.5 490.833,151.5 495.5,151.5C 496.476,180.802 496.809,210.135 496.5,239.5 Z"/></g>
<g><path style="opacity:0.969" fill="#c32c13" d="M 600.5,205.5 C 600.833,206.167 601.167,206.833 601.5,207.5C 600.448,207.351 599.448,207.517 598.5,208C 590.909,218.387 580.909,221.387 568.5,217C 566.842,215.337 564.842,214.504 562.5,214.5C 562.5,213.5 562.5,212.5 562.5,211.5C 570.168,216.557 578.501,217.723 587.5,215C 590.756,213.884 593.422,212.051 595.5,209.5C 596.579,207.457 598.246,206.124 600.5,205.5 Z"/></g>
<g><path style="opacity:1" fill="#b59626" d="M 403.5,207.5 C 402.766,208.708 402.433,210.041 402.5,211.5C 401.094,211.973 400.427,212.973 400.5,214.5C 398.415,218.68 395.415,222.013 391.5,224.5C 390.167,224.833 388.833,225.167 387.5,225.5C 387.5,224.5 387.5,223.5 387.5,222.5C 388.833,222.5 390.167,222.5 391.5,222.5C 391.162,218.849 392.828,217.183 396.5,217.5C 397.167,215.5 397.833,213.5 398.5,211.5C 400.306,210.265 401.973,208.931 403.5,207.5 Z"/></g>
<g><path style="opacity:1" fill="#e32b05" d="M 556.5,207.5 C 558.228,209.226 560.228,210.559 562.5,211.5C 562.5,212.5 562.5,213.5 562.5,214.5C 564.842,214.504 566.842,215.337 568.5,217C 580.909,221.387 590.909,218.387 598.5,208C 599.448,207.517 600.448,207.351 601.5,207.5C 605.71,209.04 609.043,211.707 611.5,215.5C 609.643,217.626 607.976,219.959 606.5,222.5C 601.952,224.107 597.619,226.274 593.5,229C 589.586,230.283 585.586,231.116 581.5,231.5C 573.421,231.973 566.088,229.973 559.5,225.5C 558.902,224.205 558.402,222.872 558,221.5C 557.667,221.833 557.333,222.167 557,222.5C 553.678,221.868 550.511,220.868 547.5,219.5C 545.075,216.411 543.075,213.078 541.5,209.5C 544.635,209.548 546.302,211.215 546.5,214.5C 549.088,213.806 551.421,212.64 553.5,211C 552.774,209.603 551.607,208.769 550,208.5C 548.45,208.95 546.95,209.117 545.5,209C 546.742,207.125 548.076,205.291 549.5,203.5C 548.948,201.997 548.948,200.331 549.5,198.5C 550.5,198.5 551.5,198.5 552.5,198.5C 551.799,202.819 552.966,206.486 556,209.5C 556.464,208.906 556.631,208.239 556.5,207.5 Z"/></g>
<g><path style="opacity:0.114" fill="#630a04" d="M 562.5,209.5 C 573.493,217.415 584.493,217.415 595.5,209.5C 593.422,212.051 590.756,213.884 587.5,215C 578.501,217.723 570.168,216.557 562.5,211.5C 562.5,210.833 562.5,210.167 562.5,209.5 Z"/></g>
<g><path style="opacity:0.804" fill="#1f517a" d="M 116.5,218.5 C 117.873,218.343 119.207,218.51 120.5,219C 123.362,220.735 125.696,222.902 127.5,225.5C 123.024,224.343 119.358,222.01 116.5,218.5 Z"/></g>
<g><path style="opacity:0.89" fill="#82611a" d="M 331.5,218.5 C 335.074,220.401 338.074,223.068 340.5,226.5C 336.874,224.541 333.874,221.874 331.5,218.5 Z"/></g>
<g><path style="opacity:0.467" fill="#144164" d="M 427.5,220.5 C 430.089,221.419 432.089,223.086 433.5,225.5C 430.911,224.581 428.911,222.914 427.5,220.5 Z"/></g>
<g><path style="opacity:1" fill="#d32e10" d="M 547.5,219.5 C 550.511,220.868 553.678,221.868 557,222.5C 557.333,222.167 557.667,221.833 558,221.5C 558.402,222.872 558.902,224.205 559.5,225.5C 566.088,229.973 573.421,231.973 581.5,231.5C 581.5,231.833 581.5,232.167 581.5,232.5C 573.149,233.224 565.483,231.391 558.5,227C 557.207,226.51 555.873,226.343 554.5,226.5C 553.415,224.413 551.749,223.08 549.5,222.5C 548.833,221.5 548.167,220.5 547.5,219.5 Z"/></g>
<g><path style="opacity:1" fill="#2b8cd9" d="M 131.5,225.5 C 129.47,222.818 126.803,221.151 123.5,220.5C 123.545,215.444 126.212,213.111 131.5,213.5C 130.618,209.857 128.284,208.69 124.5,210C 122.454,212.903 119.787,214.736 116.5,215.5C 118.702,213.056 119.869,210.056 120,206.5C 121.758,204.917 123.258,203.25 124.5,201.5C 131.054,206.412 138.054,210.412 145.5,213.5C 143.265,214.248 143.598,215.081 146.5,216C 149.5,216.167 152.5,216.333 155.5,216.5C 162.731,216.036 169.898,215.036 177,213.5C 180.034,214.174 182.7,214.841 185,215.5C 185.333,213.833 185.667,212.167 186,210.5C 188.556,209.781 189.723,208.114 189.5,205.5C 192.669,205.338 194.669,203.672 195.5,200.5C 197.966,199.119 199.966,199.619 201.5,202C 199.006,204.083 196.673,206.249 194.5,208.5C 195.325,209.386 196.325,209.719 197.5,209.5C 197.5,210.5 197.5,211.5 197.5,212.5C 196.167,212.5 194.833,212.5 193.5,212.5C 193.649,213.552 193.483,214.552 193,215.5C 191.301,214.594 189.467,214.261 187.5,214.5C 187.326,216.861 186.993,219.194 186.5,221.5C 185.178,221.33 184.011,221.663 183,222.5C 182.667,221.833 182.333,221.167 182,220.5C 181.333,221.833 180.667,221.833 180,220.5C 177.279,224.841 173.279,227.174 168,227.5C 164.602,225.302 160.935,223.635 157,222.5C 154.651,223.976 152.484,223.81 150.5,222C 151.5,221.667 152.5,221.333 153.5,221C 148.823,219.831 144.157,218.664 139.5,217.5C 139.354,219.942 140.187,220.609 142,219.5C 144.243,220.971 146.743,221.971 149.5,222.5C 147.647,223.76 145.814,223.76 144,222.5C 143.13,223.108 142.63,223.941 142.5,225C 143.94,227.007 143.273,227.841 140.5,227.5C 137.563,226.53 134.563,225.863 131.5,225.5 Z"/></g>
<g><path style="opacity:0.255" fill="#0d3862" d="M 183.5,207.5 C 183.53,208.497 183.03,209.164 182,209.5C 171.41,214.077 160.577,215.41 149.5,213.5C 154.695,213.821 159.695,213.487 164.5,212.5C 171.101,211.855 177.434,210.189 183.5,207.5 Z"/></g>
<g><path style="opacity:0.247" fill="#11375c" d="M 191.5,201.5 C 189.687,204.647 187.02,206.647 183.5,207.5C 185.878,205.122 188.545,203.122 191.5,201.5 Z"/></g>
<g><path style="opacity:0.545" fill="#781407" d="M 549.5,222.5 C 551.749,223.08 553.415,224.413 554.5,226.5C 552.251,225.92 550.585,224.587 549.5,222.5 Z"/></g>
<g><path style="opacity:1" fill="#e7b60f" d="M 339.5,183.5 C 339.334,187.846 339.501,192.179 340,196.5C 340.236,198.119 341.069,199.119 342.5,199.5C 342.025,202.313 343.025,204.313 345.5,205.5C 346.5,208.5 348.5,210.5 351.5,211.5C 353.19,213.342 355.19,214.675 357.5,215.5C 359.349,216.837 361.516,217.503 364,217.5C 366.498,217.083 368.998,216.749 371.5,216.5C 372.928,219.303 373.595,222.303 373.5,225.5C 371.94,225.519 370.44,225.852 369,226.5C 366.639,225.449 364.306,224.449 362,223.5C 355.413,226.05 355.913,227.55 363.5,228C 362.429,228.852 361.429,229.685 360.5,230.5C 356.802,230.448 353.135,230.114 349.5,229.5C 348.322,228.001 346.655,227.001 344.5,226.5C 343.833,225.5 343.167,224.5 342.5,223.5C 343.629,221.471 343.129,221.137 341,222.5C 338.126,220.423 335.959,217.756 334.5,214.5C 333.914,214.709 333.414,215.043 333,215.5C 333.497,213.802 333.33,212.135 332.5,210.5C 327.228,208.676 326.061,205.676 329,201.5C 330.496,203.411 331.829,205.411 333,207.5C 333.36,205.392 334.027,203.392 335,201.5C 335.667,202.833 336.333,202.833 337,201.5C 337.75,195.341 338.583,189.341 339.5,183.5 Z"/></g>
<g><path style="opacity:0.051" fill="#5b0903" d="M 606.5,223.5 C 605.421,225.543 603.754,226.876 601.5,227.5C 602.539,225.469 604.205,224.136 606.5,223.5 Z"/></g>
<g><path style="opacity:0.604" fill="#163d63" d="M 127.5,225.5 C 128.833,225.5 130.167,225.5 131.5,225.5C 133.5,226.833 135.5,228.167 137.5,229.5C 133.673,229.248 130.34,227.915 127.5,225.5 Z"/></g>
<g><path style="opacity:0.094" fill="#553d0e" d="M 391.5,224.5 C 389.371,226.95 386.704,228.617 383.5,229.5C 384.527,227.806 385.861,226.473 387.5,225.5C 388.833,225.167 390.167,224.833 391.5,224.5 Z"/></g>
<g><path style="opacity:0.247" fill="#591104" d="M 293.5,226.5 C 293.027,227.906 292.027,228.573 290.5,228.5C 290.821,226.952 291.821,226.285 293.5,226.5 Z"/></g>
<g><path style="opacity:0.282" fill="#113460" d="M 198.5,220.5 C 182.55,232.436 164.883,236.103 145.5,231.5C 164.51,233.832 182.176,230.165 198.5,220.5 Z"/></g>
<g><path style="opacity:0.086" fill="#3f2906" d="M 340.5,226.5 C 342.027,226.427 343.027,227.094 343.5,228.5C 341.973,228.573 340.973,227.906 340.5,226.5 Z"/></g>
<g><path style="opacity:1" fill="#d5ab29" d="M 387.5,225.5 C 385.861,226.473 384.527,227.806 383.5,229.5C 379.207,230.656 374.874,231.656 370.5,232.5C 365.489,232.666 360.489,232.499 355.5,232C 353.277,231.434 351.277,230.6 349.5,229.5C 353.135,230.114 356.802,230.448 360.5,230.5C 364.5,230.5 368.5,230.5 372.5,230.5C 372.5,229.5 372.5,228.5 372.5,227.5C 377.641,227.655 382.641,226.988 387.5,225.5 Z"/></g>
<g><path style="opacity:0.569" fill="#5e3f0b" d="M 343.5,228.5 C 345.565,228.517 347.565,228.85 349.5,229.5C 351.277,230.6 353.277,231.434 355.5,232C 360.489,232.499 365.489,232.666 370.5,232.5C 370.5,232.833 370.5,233.167 370.5,233.5C 360.825,234.683 351.825,233.016 343.5,228.5 Z"/></g>
<g><path style="opacity:0.698" fill="#7b150b" d="M 554.5,226.5 C 555.873,226.343 557.207,226.51 558.5,227C 565.483,231.391 573.149,233.224 581.5,232.5C 583.833,232.5 586.167,232.5 588.5,232.5C 581.679,233.655 574.679,233.821 567.5,233C 562.557,231.862 558.224,229.695 554.5,226.5 Z"/></g>
<g><path style="opacity:0.075" fill="#57140a" d="M 600.5,227.5 C 599.713,229.104 598.38,229.771 596.5,229.5C 597.287,227.896 598.62,227.229 600.5,227.5 Z"/></g>
<g><path style="opacity:0.141" fill="#0c3153" d="M 137.5,229.5 C 140.152,229.41 142.485,230.076 144.5,231.5C 141.848,231.59 139.515,230.924 137.5,229.5 Z"/></g>
<g><path style="opacity:0.988" fill="#c53015" d="M 254.5,230.5 C 254.5,230.167 254.5,229.833 254.5,229.5C 262.816,230.185 271.149,230.518 279.5,230.5C 274.084,232.117 268.417,232.784 262.5,232.5C 260.162,230.96 257.495,230.294 254.5,230.5 Z"/></g>
<g><path style="opacity:0.647" fill="#6d130a" d="M 290.5,228.5 C 281.633,233.302 272.3,234.635 262.5,232.5C 268.417,232.784 274.084,232.117 279.5,230.5C 280.492,230.672 281.158,230.338 281.5,229.5C 282.167,229.5 282.833,229.5 283.5,229.5C 285.806,229.007 288.139,228.674 290.5,228.5 Z"/></g>
<g><path style="opacity:0.286" fill="#681009" d="M 254.5,230.5 C 257.495,230.294 260.162,230.96 262.5,232.5C 259.505,232.706 256.838,232.04 254.5,230.5 Z"/></g>
<g><path style="opacity:0.043" fill="#342306" d="M 383.5,229.5 C 379.597,231.898 375.264,233.231 370.5,233.5C 370.5,233.167 370.5,232.833 370.5,232.5C 374.874,231.656 379.207,230.656 383.5,229.5 Z"/></g>
<g><path style="opacity:0.724" fill="#a62917" d="M 606.5,222.5 C 606.5,222.833 606.5,223.167 606.5,223.5C 604.205,224.136 602.539,225.469 601.5,227.5C 601.167,227.5 600.833,227.5 600.5,227.5C 598.62,227.229 597.287,227.896 596.5,229.5C 594.316,231.585 591.649,232.585 588.5,232.5C 586.167,232.5 583.833,232.5 581.5,232.5C 581.5,232.167 581.5,231.833 581.5,231.5C 585.586,231.116 589.586,230.283 593.5,229C 597.619,226.274 601.952,224.107 606.5,222.5 Z"/></g>
<g><path style="opacity:0.125" fill="#11345f" d="M 433.5,225.5 C 434.873,225.343 436.207,225.51 437.5,226C 440.718,228.777 444.385,230.777 448.5,232C 453.823,232.499 459.156,232.666 464.5,232.5C 454.372,234.824 444.706,233.324 435.5,228C 434.619,227.292 433.953,226.458 433.5,225.5 Z"/></g>
<g><path style="opacity:0.078" fill="#0d2e52" d="M 472.5,248.5 C 477.46,241.946 479.126,234.613 477.5,226.5C 474.036,229.565 470.036,231.565 465.5,232.5C 468,230.831 470.667,229.164 473.5,227.5C 478.321,222.78 480.321,223.947 479.5,231C 479.543,235.662 478.709,240.162 477,244.5C 475.791,246.184 474.291,247.517 472.5,248.5 Z"/></g>
<g><path style="opacity:0.224" fill="#182f4b" d="M 437.5,242.5 C 434.816,240.458 431.816,240.125 428.5,241.5C 430.396,240.519 432.396,239.519 434.5,238.5C 436.55,239.077 437.55,240.41 437.5,242.5 Z"/></g>
<g><path style="opacity:0.518" fill="#214769" d="M 428.5,241.5 C 426.324,243.515 423.824,245.182 421,246.5C 420.865,248.922 421.365,251.255 422.5,253.5C 419.687,251.53 418.52,248.863 419,245.5C 421.889,243.482 425.055,242.149 428.5,241.5 Z"/></g>
<g><path style="opacity:0.137" fill="#0c1c38" d="M 472.5,248.5 C 472.027,249.906 471.027,250.573 469.5,250.5C 469.973,249.094 470.973,248.427 472.5,248.5 Z"/></g>
<g><path style="opacity:0.188" fill="#0a2d58" d="M 437.5,242.5 C 445.909,253.602 456.575,256.269 469.5,250.5C 469.423,251.75 468.756,252.583 467.5,253C 461.888,254.131 456.221,254.631 450.5,254.5C 446.024,252.762 442.024,250.262 438.5,247C 437.62,245.644 437.286,244.144 437.5,242.5 Z"/></g>
<g><path style="opacity:0.957" fill="#2d6192" d="M 496.5,239.5 C 495.477,249.231 491.143,256.898 483.5,262.5C 483.586,261.504 483.252,260.671 482.5,260C 483.793,259.51 485.127,259.343 486.5,259.5C 486.5,257.833 486.5,256.167 486.5,254.5C 487.833,254.5 489.167,254.5 490.5,254.5C 491.643,250.256 492.31,245.923 492.5,241.5C 493.605,240.4 494.938,239.733 496.5,239.5 Z"/></g>
<g><path style="opacity:1" fill="#338ccc" d="M 492.5,241.5 C 492.31,245.923 491.643,250.256 490.5,254.5C 489.167,254.5 487.833,254.5 486.5,254.5C 486.5,256.167 486.5,257.833 486.5,259.5C 485.127,259.343 483.793,259.51 482.5,260C 483.252,260.671 483.586,261.504 483.5,262.5C 483.167,263.5 482.5,264.167 481.5,264.5C 479.03,264.654 477.03,265.654 475.5,267.5C 472.458,267.733 469.792,268.733 467.5,270.5C 458.518,272.1 449.518,271.6 440.5,269C 437.761,267.974 435.428,266.474 433.5,264.5C 443.198,267.9 453.198,269.233 463.5,268.5C 463.741,264.865 464.575,261.532 466,258.5C 461.218,259.802 456.385,259.802 451.5,258.5C 452.5,257.667 453.5,256.833 454.5,256C 452.942,255.79 451.609,255.29 450.5,254.5C 456.221,254.631 461.888,254.131 467.5,253C 468.756,252.583 469.423,251.75 469.5,250.5C 471.027,250.573 472.027,249.906 472.5,248.5C 474.291,247.517 475.791,246.184 477,244.5C 478.709,240.162 479.543,235.662 479.5,231C 480.321,223.947 478.321,222.78 473.5,227.5C 473.286,225.856 473.62,224.356 474.5,223C 471.5,220.051 467.834,218.551 463.5,218.5C 468.478,217.893 473.145,216.226 477.5,213.5C 474.187,218.662 475.52,221.495 481.5,222C 482.308,220.294 483.641,219.461 485.5,219.5C 485.657,218.127 485.49,216.793 485,215.5C 484.692,216.308 484.192,216.975 483.5,217.5C 482.167,215.5 482.167,213.5 483.5,211.5C 485.814,213.998 486.98,216.998 487,220.5C 487.333,218.833 487.667,217.167 488,215.5C 488.301,220.644 487.468,225.644 485.5,230.5C 486.121,228.002 485.455,225.668 483.5,223.5C 482.505,228.792 482.172,234.125 482.5,239.5C 484.91,239.921 486.743,241.254 488,243.5C 489.47,242.733 490.97,242.067 492.5,241.5 Z"/></g>
<g><path style="opacity:0.494" fill="#1c486b" d="M 427.5,259.5 C 430.089,260.419 432.089,262.086 433.5,264.5C 430.911,263.581 428.911,261.914 427.5,259.5 Z"/></g>
<g><path style="opacity:1" fill="#3592d4" d="M 437.5,242.5 C 437.286,244.144 437.62,245.644 438.5,247C 442.024,250.262 446.024,252.762 450.5,254.5C 451.609,255.29 452.942,255.79 454.5,256C 453.5,256.833 452.5,257.667 451.5,258.5C 456.385,259.802 461.218,259.802 466,258.5C 464.575,261.532 463.741,264.865 463.5,268.5C 453.198,269.233 443.198,267.9 433.5,264.5C 432.089,262.086 430.089,260.419 427.5,259.5C 425.086,258.089 423.419,256.089 422.5,253.5C 421.365,251.255 420.865,248.922 421,246.5C 423.824,245.182 426.324,243.515 428.5,241.5C 431.816,240.125 434.816,240.458 437.5,242.5 Z"/></g>
<g><path style="opacity:0.067" fill="#183769" d="M 481.5,264.5 C 479.97,266.346 477.97,267.346 475.5,267.5C 477.03,265.654 479.03,264.654 481.5,264.5 Z"/></g>
<g><path style="opacity:0.173" fill="#19446d" d="M 475.5,267.5 C 473.208,269.267 470.542,270.267 467.5,270.5C 469.792,268.733 472.458,267.733 475.5,267.5 Z"/></g>
</svg>
